M48
; DRILL file {KiCad (6.0.1)} date Tue Mar 22 00:20:08 2022
; FORMAT={-:-/ absolute / inch / decimal}
; #@! TF.CreationDate,2022-03-22T00:20:08-03:00
; #@! TF.GenerationSoftware,Kicad,Pcbnew,(6.0.1)
; #@! TF.FileFunction,Plated,1,2,PTH
FMAT,2
INCH
; #@! TA.AperFunction,Plated,PTH,ComponentDrill
T1C0.0315
; #@! TA.AperFunction,Plated,PTH,ComponentDrill
T2C0.0354
; #@! TA.AperFunction,Plated,PTH,ComponentDrill
T3C0.0394
; #@! TA.AperFunction,Plated,PTH,ComponentDrill
T4C0.0472
%
G90
G05
T1
X4.1142Y-4.4457
X4.1142Y-4.5244
X4.1929Y-4.4457
X4.1929Y-4.5244
X4.2717Y-4.4457
X4.2717Y-4.5244
X5.3031Y-3.9248
X5.3071Y-4.174
X5.3071Y-4.422
X5.315Y-3.3039
X5.315Y-3.7039
X5.4031Y-3.9248
X5.4071Y-4.174
X5.4071Y-4.422
X5.4528Y-3.3039
X5.4528Y-3.7039
X5.5031Y-3.9248
X5.5071Y-4.174
X5.5071Y-4.422
X5.5906Y-3.3106
X5.5906Y-3.7106
X5.772Y-3.5606
X5.772Y-3.9606
X5.897Y-3.7106
X5.897Y-4.1106
X6.022Y-3.8606
X6.022Y-4.2606
X6.172Y-3.5606
X6.172Y-3.9606
X6.297Y-3.7106
X6.297Y-4.1106
X6.422Y-3.8606
X6.422Y-4.2606
X6.572Y-3.5606
X6.572Y-3.9606
X6.697Y-3.7106
X6.697Y-4.1106
X6.822Y-3.8606
X6.822Y-4.2606
X6.972Y-3.5606
X6.972Y-3.9606
X7.097Y-3.7106
X7.097Y-4.1106
X7.222Y-3.8606
X7.222Y-4.2606
X7.372Y-3.5606
X7.372Y-3.9606
X7.497Y-3.7106
X7.497Y-4.1106
X7.622Y-3.8606
X7.622Y-4.2606
X7.772Y-3.5606
X7.772Y-3.9606
X7.897Y-3.7106
X7.897Y-4.1106
X8.022Y-3.8606
X8.022Y-4.2606
X8.172Y-3.5606
X8.172Y-3.9606
X8.297Y-3.7106
X8.297Y-4.1106
X8.422Y-3.8606
X8.422Y-4.2606
X8.572Y-3.5606
X8.572Y-3.9606
X8.697Y-3.7106
X8.697Y-4.1106
X8.822Y-3.8606
X8.822Y-4.2606
T2
X5.767Y-3.3189
X5.852Y-3.3189
X5.937Y-3.3189
X6.022Y-3.3189
X6.167Y-3.3189
X6.252Y-3.3189
X6.337Y-3.3189
X6.422Y-3.3189
X6.567Y-3.3189
X6.652Y-3.3189
X6.737Y-3.3189
X6.822Y-3.3189
X6.967Y-3.3189
X7.052Y-3.3189
X7.137Y-3.3189
X7.222Y-3.3189
X7.367Y-3.3189
X7.452Y-3.3189
X7.537Y-3.3189
X7.622Y-3.3189
X7.767Y-3.3189
X7.852Y-3.3189
X7.937Y-3.3189
X8.022Y-3.3189
X8.167Y-3.3189
X8.252Y-3.3189
X8.337Y-3.3189
X8.422Y-3.3189
X8.567Y-3.3189
X8.652Y-3.3189
X8.737Y-3.3189
X8.822Y-3.3189
T3
X3.372Y-3.3606
X3.372Y-3.9606
X3.472Y-3.3606
X3.472Y-3.9606
X3.572Y-3.3606
X3.572Y-3.9606
X3.672Y-3.3606
X3.672Y-3.9606
X3.772Y-3.3606
X3.772Y-3.9606
X3.872Y-3.3606
X3.872Y-3.9606
X3.972Y-3.3606
X3.972Y-3.9606
X4.072Y-3.3606
X4.072Y-3.9606
X4.172Y-3.3606
X4.172Y-3.9606
X4.272Y-3.3606
X4.272Y-3.9606
X4.372Y-3.3606
X4.372Y-3.9606
X4.472Y-3.3606
X4.472Y-3.9606
X4.5669Y-4.4244
X4.5669Y-4.5244
X4.572Y-3.3606
X4.572Y-3.9606
X4.672Y-3.3606
X4.672Y-3.9606
X4.772Y-3.3606
X4.772Y-3.9606
T4
X4.0039Y-4.485
X4.3819Y-4.485
T0
M30
