%TF.GenerationSoftware,KiCad,Pcbnew,(6.0.1)*%
%TF.CreationDate,2022-03-22T00:20:04-03:00*%
%TF.ProjectId,POV_fna,504f565f-666e-4612-9e6b-696361645f70,rev?*%
%TF.SameCoordinates,Original*%
%TF.FileFunction,Soldermask,Top*%
%TF.FilePolarity,Negative*%
%FSLAX46Y46*%
G04 Gerber Fmt 4.6, Leading zero omitted, Abs format (unit mm)*
G04 Created by KiCad (PCBNEW (6.0.1)) date 2022-03-22 00:20:04*
%MOMM*%
%LPD*%
G01*
G04 APERTURE LIST*
%ADD10C,0.010000*%
%ADD11C,1.600000*%
%ADD12O,1.600000X1.600000*%
%ADD13C,4.000000*%
%ADD14R,1.800000X1.800000*%
%ADD15C,1.800000*%
%ADD16R,1.500000X1.500000*%
%ADD17C,1.500000*%
%ADD18C,1.300000*%
%ADD19R,1.600000X1.600000*%
%ADD20R,1.700000X1.700000*%
%ADD21O,1.700000X1.700000*%
G04 APERTURE END LIST*
D10*
%TO.C,G\u002A\u002A\u002A*%
X201944823Y-72027868D02*
X202172541Y-72027939D01*
X202172541Y-72027939D02*
X202441216Y-72028253D01*
X202441216Y-72028253D02*
X202702879Y-72029070D01*
X202702879Y-72029070D02*
X202953659Y-72030345D01*
X202953659Y-72030345D02*
X203189681Y-72032038D01*
X203189681Y-72032038D02*
X203407074Y-72034105D01*
X203407074Y-72034105D02*
X203601965Y-72036503D01*
X203601965Y-72036503D02*
X203770481Y-72039191D01*
X203770481Y-72039191D02*
X203908749Y-72042124D01*
X203908749Y-72042124D02*
X204012897Y-72045262D01*
X204012897Y-72045262D02*
X204079053Y-72048561D01*
X204079053Y-72048561D02*
X204084285Y-72048968D01*
X204084285Y-72048968D02*
X204414810Y-72089551D01*
X204414810Y-72089551D02*
X204710391Y-72153797D01*
X204710391Y-72153797D02*
X204971369Y-72241979D01*
X204971369Y-72241979D02*
X205198086Y-72354369D01*
X205198086Y-72354369D02*
X205390881Y-72491242D01*
X205390881Y-72491242D02*
X205550097Y-72652869D01*
X205550097Y-72652869D02*
X205676074Y-72839524D01*
X205676074Y-72839524D02*
X205769153Y-73051480D01*
X205769153Y-73051480D02*
X205829676Y-73289009D01*
X205829676Y-73289009D02*
X205852319Y-73464213D01*
X205852319Y-73464213D02*
X205860440Y-73700563D01*
X205860440Y-73700563D02*
X205841121Y-73908046D01*
X205841121Y-73908046D02*
X205792844Y-74091261D01*
X205792844Y-74091261D02*
X205714094Y-74254810D01*
X205714094Y-74254810D02*
X205603351Y-74403292D01*
X205603351Y-74403292D02*
X205512392Y-74494912D01*
X205512392Y-74494912D02*
X205445069Y-74552670D01*
X205445069Y-74552670D02*
X205380215Y-74602134D01*
X205380215Y-74602134D02*
X205331566Y-74632849D01*
X205331566Y-74632849D02*
X205330519Y-74633363D01*
X205330519Y-74633363D02*
X205266114Y-74664555D01*
X205266114Y-74664555D02*
X205365036Y-74710656D01*
X205365036Y-74710656D02*
X205495274Y-74790731D01*
X205495274Y-74790731D02*
X205621973Y-74904316D01*
X205621973Y-74904316D02*
X205738095Y-75042733D01*
X205738095Y-75042733D02*
X205836597Y-75197303D01*
X205836597Y-75197303D02*
X205910441Y-75359348D01*
X205910441Y-75359348D02*
X205924203Y-75399942D01*
X205924203Y-75399942D02*
X205950908Y-75519715D01*
X205950908Y-75519715D02*
X205967324Y-75668174D01*
X205967324Y-75668174D02*
X205973459Y-75832945D01*
X205973459Y-75832945D02*
X205969319Y-76001653D01*
X205969319Y-76001653D02*
X205954911Y-76161923D01*
X205954911Y-76161923D02*
X205930244Y-76301378D01*
X205930244Y-76301378D02*
X205923649Y-76327275D01*
X205923649Y-76327275D02*
X205839092Y-76566893D01*
X205839092Y-76566893D02*
X205723094Y-76778824D01*
X205723094Y-76778824D02*
X205575155Y-76963560D01*
X205575155Y-76963560D02*
X205394773Y-77121592D01*
X205394773Y-77121592D02*
X205181448Y-77253410D01*
X205181448Y-77253410D02*
X204934680Y-77359507D01*
X204934680Y-77359507D02*
X204839370Y-77390945D01*
X204839370Y-77390945D02*
X204771497Y-77411745D01*
X204771497Y-77411745D02*
X204709891Y-77430110D01*
X204709891Y-77430110D02*
X204651580Y-77446200D01*
X204651580Y-77446200D02*
X204593588Y-77460177D01*
X204593588Y-77460177D02*
X204532943Y-77472200D01*
X204532943Y-77472200D02*
X204466672Y-77482431D01*
X204466672Y-77482431D02*
X204391800Y-77491029D01*
X204391800Y-77491029D02*
X204305354Y-77498156D01*
X204305354Y-77498156D02*
X204204361Y-77503973D01*
X204204361Y-77503973D02*
X204085847Y-77508639D01*
X204085847Y-77508639D02*
X203946838Y-77512316D01*
X203946838Y-77512316D02*
X203784362Y-77515164D01*
X203784362Y-77515164D02*
X203595443Y-77517344D01*
X203595443Y-77517344D02*
X203377110Y-77519016D01*
X203377110Y-77519016D02*
X203126389Y-77520341D01*
X203126389Y-77520341D02*
X202840305Y-77521479D01*
X202840305Y-77521479D02*
X202515885Y-77522592D01*
X202515885Y-77522592D02*
X202394791Y-77522998D01*
X202394791Y-77522998D02*
X202086096Y-77523824D01*
X202086096Y-77523824D02*
X201796308Y-77524175D01*
X201796308Y-77524175D02*
X201527884Y-77524066D01*
X201527884Y-77524066D02*
X201283280Y-77523514D01*
X201283280Y-77523514D02*
X201064955Y-77522534D01*
X201064955Y-77522534D02*
X200875365Y-77521145D01*
X200875365Y-77521145D02*
X200716967Y-77519360D01*
X200716967Y-77519360D02*
X200592218Y-77517197D01*
X200592218Y-77517197D02*
X200503576Y-77514672D01*
X200503576Y-77514672D02*
X200453496Y-77511801D01*
X200453496Y-77511801D02*
X200443399Y-77510132D01*
X200443399Y-77510132D02*
X200398720Y-77478736D01*
X200398720Y-77478736D02*
X200358733Y-77432438D01*
X200358733Y-77432438D02*
X200352993Y-77422101D01*
X200352993Y-77422101D02*
X200347846Y-77408035D01*
X200347846Y-77408035D02*
X200343252Y-77387972D01*
X200343252Y-77387972D02*
X200339173Y-77359641D01*
X200339173Y-77359641D02*
X200335572Y-77320773D01*
X200335572Y-77320773D02*
X200332410Y-77269098D01*
X200332410Y-77269098D02*
X200329649Y-77202348D01*
X200329649Y-77202348D02*
X200327251Y-77118251D01*
X200327251Y-77118251D02*
X200325178Y-77014540D01*
X200325178Y-77014540D02*
X200323391Y-76888944D01*
X200323391Y-76888944D02*
X200321853Y-76739194D01*
X200321853Y-76739194D02*
X200320526Y-76563021D01*
X200320526Y-76563021D02*
X200319370Y-76358154D01*
X200319370Y-76358154D02*
X200318349Y-76122325D01*
X200318349Y-76122325D02*
X200317424Y-75853263D01*
X200317424Y-75853263D02*
X200316557Y-75548700D01*
X200316557Y-75548700D02*
X200316224Y-75414238D01*
X200316224Y-75414238D02*
X202384207Y-75414238D01*
X202384207Y-75414238D02*
X202384207Y-76155071D01*
X202384207Y-76155071D02*
X203000066Y-76155071D01*
X203000066Y-76155071D02*
X203181183Y-76154820D01*
X203181183Y-76154820D02*
X203324873Y-76153896D01*
X203324873Y-76153896D02*
X203436041Y-76152041D01*
X203436041Y-76152041D02*
X203519589Y-76148996D01*
X203519589Y-76148996D02*
X203580424Y-76144505D01*
X203580424Y-76144505D02*
X203623448Y-76138309D01*
X203623448Y-76138309D02*
X203653566Y-76130150D01*
X203653566Y-76130150D02*
X203675683Y-76119771D01*
X203675683Y-76119771D02*
X203676102Y-76119523D01*
X203676102Y-76119523D02*
X203721482Y-76079928D01*
X203721482Y-76079928D02*
X203769257Y-76019178D01*
X203769257Y-76019178D02*
X203790493Y-75984367D01*
X203790493Y-75984367D02*
X203835370Y-75865005D01*
X203835370Y-75865005D02*
X203843608Y-75746386D01*
X203843608Y-75746386D02*
X203817117Y-75635868D01*
X203817117Y-75635868D02*
X203757807Y-75540810D01*
X203757807Y-75540810D02*
X203667586Y-75468571D01*
X203667586Y-75468571D02*
X203654927Y-75461863D01*
X203654927Y-75461863D02*
X203625536Y-75447819D01*
X203625536Y-75447819D02*
X203595981Y-75436845D01*
X203595981Y-75436845D02*
X203560846Y-75428563D01*
X203560846Y-75428563D02*
X203514712Y-75422596D01*
X203514712Y-75422596D02*
X203452161Y-75418565D01*
X203452161Y-75418565D02*
X203367776Y-75416091D01*
X203367776Y-75416091D02*
X203256139Y-75414798D01*
X203256139Y-75414798D02*
X203111833Y-75414307D01*
X203111833Y-75414307D02*
X202972389Y-75414238D01*
X202972389Y-75414238D02*
X202384207Y-75414238D01*
X202384207Y-75414238D02*
X200316224Y-75414238D01*
X200316224Y-75414238D02*
X200315709Y-75206366D01*
X200315709Y-75206366D02*
X200314843Y-74823991D01*
X200314843Y-74823991D02*
X200314834Y-74819896D01*
X200314834Y-74819896D02*
X200314040Y-74420317D01*
X200314040Y-74420317D02*
X200313520Y-74061118D01*
X200313520Y-74061118D02*
X200313290Y-73740348D01*
X200313290Y-73740348D02*
X200313366Y-73456055D01*
X200313366Y-73456055D02*
X200313449Y-73403404D01*
X200313449Y-73403404D02*
X202384207Y-73403404D01*
X202384207Y-73403404D02*
X202384207Y-74105021D01*
X202384207Y-74105021D02*
X202943619Y-74098171D01*
X202943619Y-74098171D02*
X203112848Y-74095927D01*
X203112848Y-74095927D02*
X203245017Y-74093551D01*
X203245017Y-74093551D02*
X203345397Y-74090611D01*
X203345397Y-74090611D02*
X203419259Y-74086676D01*
X203419259Y-74086676D02*
X203471876Y-74081316D01*
X203471876Y-74081316D02*
X203508520Y-74074099D01*
X203508520Y-74074099D02*
X203534461Y-74064596D01*
X203534461Y-74064596D02*
X203554972Y-74052374D01*
X203554972Y-74052374D02*
X203561436Y-74047680D01*
X203561436Y-74047680D02*
X203645172Y-73968654D01*
X203645172Y-73968654D02*
X203693688Y-73878059D01*
X203693688Y-73878059D02*
X203713213Y-73774805D01*
X203713213Y-73774805D02*
X203711444Y-73659024D01*
X203711444Y-73659024D02*
X203681481Y-73566684D01*
X203681481Y-73566684D02*
X203619017Y-73486280D01*
X203619017Y-73486280D02*
X203597946Y-73466807D01*
X203597946Y-73466807D02*
X203525734Y-73403404D01*
X203525734Y-73403404D02*
X202384207Y-73403404D01*
X202384207Y-73403404D02*
X200313449Y-73403404D01*
X200313449Y-73403404D02*
X200313762Y-73206286D01*
X200313762Y-73206286D02*
X200314495Y-72989090D01*
X200314495Y-72989090D02*
X200315580Y-72802514D01*
X200315580Y-72802514D02*
X200317034Y-72644606D01*
X200317034Y-72644606D02*
X200318871Y-72513414D01*
X200318871Y-72513414D02*
X200321107Y-72406987D01*
X200321107Y-72406987D02*
X200323759Y-72323373D01*
X200323759Y-72323373D02*
X200326841Y-72260618D01*
X200326841Y-72260618D02*
X200330370Y-72216772D01*
X200330370Y-72216772D02*
X200334361Y-72189882D01*
X200334361Y-72189882D02*
X200336001Y-72183709D01*
X200336001Y-72183709D02*
X200344493Y-72156067D01*
X200344493Y-72156067D02*
X200352554Y-72131889D01*
X200352554Y-72131889D02*
X200362907Y-72110945D01*
X200362907Y-72110945D02*
X200378274Y-72093004D01*
X200378274Y-72093004D02*
X200401378Y-72077835D01*
X200401378Y-72077835D02*
X200434941Y-72065207D01*
X200434941Y-72065207D02*
X200481686Y-72054888D01*
X200481686Y-72054888D02*
X200544336Y-72046649D01*
X200544336Y-72046649D02*
X200625613Y-72040258D01*
X200625613Y-72040258D02*
X200728241Y-72035484D01*
X200728241Y-72035484D02*
X200854941Y-72032096D01*
X200854941Y-72032096D02*
X201008436Y-72029863D01*
X201008436Y-72029863D02*
X201191449Y-72028555D01*
X201191449Y-72028555D02*
X201406703Y-72027941D01*
X201406703Y-72027941D02*
X201656920Y-72027789D01*
X201656920Y-72027789D02*
X201944823Y-72027868D01*
X201944823Y-72027868D02*
X201944823Y-72027868D01*
G36*
X201944823Y-72027868D02*
G01*
X202172541Y-72027939D01*
X202441216Y-72028253D01*
X202702879Y-72029070D01*
X202953659Y-72030345D01*
X203189681Y-72032038D01*
X203407074Y-72034105D01*
X203601965Y-72036503D01*
X203770481Y-72039191D01*
X203908749Y-72042124D01*
X204012897Y-72045262D01*
X204079053Y-72048561D01*
X204084285Y-72048968D01*
X204414810Y-72089551D01*
X204710391Y-72153797D01*
X204971369Y-72241979D01*
X205198086Y-72354369D01*
X205390881Y-72491242D01*
X205550097Y-72652869D01*
X205676074Y-72839524D01*
X205769153Y-73051480D01*
X205829676Y-73289009D01*
X205852319Y-73464213D01*
X205860440Y-73700563D01*
X205841121Y-73908046D01*
X205792844Y-74091261D01*
X205714094Y-74254810D01*
X205603351Y-74403292D01*
X205512392Y-74494912D01*
X205445069Y-74552670D01*
X205380215Y-74602134D01*
X205331566Y-74632849D01*
X205330519Y-74633363D01*
X205266114Y-74664555D01*
X205365036Y-74710656D01*
X205495274Y-74790731D01*
X205621973Y-74904316D01*
X205738095Y-75042733D01*
X205836597Y-75197303D01*
X205910441Y-75359348D01*
X205924203Y-75399942D01*
X205950908Y-75519715D01*
X205967324Y-75668174D01*
X205973459Y-75832945D01*
X205969319Y-76001653D01*
X205954911Y-76161923D01*
X205930244Y-76301378D01*
X205923649Y-76327275D01*
X205839092Y-76566893D01*
X205723094Y-76778824D01*
X205575155Y-76963560D01*
X205394773Y-77121592D01*
X205181448Y-77253410D01*
X204934680Y-77359507D01*
X204839370Y-77390945D01*
X204771497Y-77411745D01*
X204709891Y-77430110D01*
X204651580Y-77446200D01*
X204593588Y-77460177D01*
X204532943Y-77472200D01*
X204466672Y-77482431D01*
X204391800Y-77491029D01*
X204305354Y-77498156D01*
X204204361Y-77503973D01*
X204085847Y-77508639D01*
X203946838Y-77512316D01*
X203784362Y-77515164D01*
X203595443Y-77517344D01*
X203377110Y-77519016D01*
X203126389Y-77520341D01*
X202840305Y-77521479D01*
X202515885Y-77522592D01*
X202394791Y-77522998D01*
X202086096Y-77523824D01*
X201796308Y-77524175D01*
X201527884Y-77524066D01*
X201283280Y-77523514D01*
X201064955Y-77522534D01*
X200875365Y-77521145D01*
X200716967Y-77519360D01*
X200592218Y-77517197D01*
X200503576Y-77514672D01*
X200453496Y-77511801D01*
X200443399Y-77510132D01*
X200398720Y-77478736D01*
X200358733Y-77432438D01*
X200352993Y-77422101D01*
X200347846Y-77408035D01*
X200343252Y-77387972D01*
X200339173Y-77359641D01*
X200335572Y-77320773D01*
X200332410Y-77269098D01*
X200329649Y-77202348D01*
X200327251Y-77118251D01*
X200325178Y-77014540D01*
X200323391Y-76888944D01*
X200321853Y-76739194D01*
X200320526Y-76563021D01*
X200319370Y-76358154D01*
X200318491Y-76155071D01*
X202384207Y-76155071D01*
X203000066Y-76155071D01*
X203181183Y-76154820D01*
X203324873Y-76153896D01*
X203436041Y-76152041D01*
X203519589Y-76148996D01*
X203580424Y-76144505D01*
X203623448Y-76138309D01*
X203653566Y-76130150D01*
X203675683Y-76119771D01*
X203676102Y-76119523D01*
X203721482Y-76079928D01*
X203769257Y-76019178D01*
X203790493Y-75984367D01*
X203835370Y-75865005D01*
X203843608Y-75746386D01*
X203817117Y-75635868D01*
X203757807Y-75540810D01*
X203667586Y-75468571D01*
X203654927Y-75461863D01*
X203625536Y-75447819D01*
X203595981Y-75436845D01*
X203560846Y-75428563D01*
X203514712Y-75422596D01*
X203452161Y-75418565D01*
X203367776Y-75416091D01*
X203256139Y-75414798D01*
X203111833Y-75414307D01*
X202972389Y-75414238D01*
X202384207Y-75414238D01*
X202384207Y-76155071D01*
X200318491Y-76155071D01*
X200318349Y-76122325D01*
X200317424Y-75853263D01*
X200316557Y-75548700D01*
X200316224Y-75414238D01*
X200315709Y-75206366D01*
X200314843Y-74823991D01*
X200314834Y-74819896D01*
X200314040Y-74420317D01*
X200313584Y-74105021D01*
X202384207Y-74105021D01*
X202943619Y-74098171D01*
X203112848Y-74095927D01*
X203245017Y-74093551D01*
X203345397Y-74090611D01*
X203419259Y-74086676D01*
X203471876Y-74081316D01*
X203508520Y-74074099D01*
X203534461Y-74064596D01*
X203554972Y-74052374D01*
X203561436Y-74047680D01*
X203645172Y-73968654D01*
X203693688Y-73878059D01*
X203713213Y-73774805D01*
X203711444Y-73659024D01*
X203681481Y-73566684D01*
X203619017Y-73486280D01*
X203597946Y-73466807D01*
X203525734Y-73403404D01*
X202384207Y-73403404D01*
X202384207Y-74105021D01*
X200313584Y-74105021D01*
X200313520Y-74061118D01*
X200313290Y-73740348D01*
X200313366Y-73456055D01*
X200313449Y-73403404D01*
X200313762Y-73206286D01*
X200314495Y-72989090D01*
X200315580Y-72802514D01*
X200317034Y-72644606D01*
X200318871Y-72513414D01*
X200321107Y-72406987D01*
X200323759Y-72323373D01*
X200326841Y-72260618D01*
X200330370Y-72216772D01*
X200334361Y-72189882D01*
X200336001Y-72183709D01*
X200344493Y-72156067D01*
X200352554Y-72131889D01*
X200362907Y-72110945D01*
X200378274Y-72093004D01*
X200401378Y-72077835D01*
X200434941Y-72065207D01*
X200481686Y-72054888D01*
X200544336Y-72046649D01*
X200625613Y-72040258D01*
X200728241Y-72035484D01*
X200854941Y-72032096D01*
X201008436Y-72029863D01*
X201191449Y-72028555D01*
X201406703Y-72027941D01*
X201656920Y-72027789D01*
X201944823Y-72027868D01*
G37*
X201944823Y-72027868D02*
X202172541Y-72027939D01*
X202441216Y-72028253D01*
X202702879Y-72029070D01*
X202953659Y-72030345D01*
X203189681Y-72032038D01*
X203407074Y-72034105D01*
X203601965Y-72036503D01*
X203770481Y-72039191D01*
X203908749Y-72042124D01*
X204012897Y-72045262D01*
X204079053Y-72048561D01*
X204084285Y-72048968D01*
X204414810Y-72089551D01*
X204710391Y-72153797D01*
X204971369Y-72241979D01*
X205198086Y-72354369D01*
X205390881Y-72491242D01*
X205550097Y-72652869D01*
X205676074Y-72839524D01*
X205769153Y-73051480D01*
X205829676Y-73289009D01*
X205852319Y-73464213D01*
X205860440Y-73700563D01*
X205841121Y-73908046D01*
X205792844Y-74091261D01*
X205714094Y-74254810D01*
X205603351Y-74403292D01*
X205512392Y-74494912D01*
X205445069Y-74552670D01*
X205380215Y-74602134D01*
X205331566Y-74632849D01*
X205330519Y-74633363D01*
X205266114Y-74664555D01*
X205365036Y-74710656D01*
X205495274Y-74790731D01*
X205621973Y-74904316D01*
X205738095Y-75042733D01*
X205836597Y-75197303D01*
X205910441Y-75359348D01*
X205924203Y-75399942D01*
X205950908Y-75519715D01*
X205967324Y-75668174D01*
X205973459Y-75832945D01*
X205969319Y-76001653D01*
X205954911Y-76161923D01*
X205930244Y-76301378D01*
X205923649Y-76327275D01*
X205839092Y-76566893D01*
X205723094Y-76778824D01*
X205575155Y-76963560D01*
X205394773Y-77121592D01*
X205181448Y-77253410D01*
X204934680Y-77359507D01*
X204839370Y-77390945D01*
X204771497Y-77411745D01*
X204709891Y-77430110D01*
X204651580Y-77446200D01*
X204593588Y-77460177D01*
X204532943Y-77472200D01*
X204466672Y-77482431D01*
X204391800Y-77491029D01*
X204305354Y-77498156D01*
X204204361Y-77503973D01*
X204085847Y-77508639D01*
X203946838Y-77512316D01*
X203784362Y-77515164D01*
X203595443Y-77517344D01*
X203377110Y-77519016D01*
X203126389Y-77520341D01*
X202840305Y-77521479D01*
X202515885Y-77522592D01*
X202394791Y-77522998D01*
X202086096Y-77523824D01*
X201796308Y-77524175D01*
X201527884Y-77524066D01*
X201283280Y-77523514D01*
X201064955Y-77522534D01*
X200875365Y-77521145D01*
X200716967Y-77519360D01*
X200592218Y-77517197D01*
X200503576Y-77514672D01*
X200453496Y-77511801D01*
X200443399Y-77510132D01*
X200398720Y-77478736D01*
X200358733Y-77432438D01*
X200352993Y-77422101D01*
X200347846Y-77408035D01*
X200343252Y-77387972D01*
X200339173Y-77359641D01*
X200335572Y-77320773D01*
X200332410Y-77269098D01*
X200329649Y-77202348D01*
X200327251Y-77118251D01*
X200325178Y-77014540D01*
X200323391Y-76888944D01*
X200321853Y-76739194D01*
X200320526Y-76563021D01*
X200319370Y-76358154D01*
X200318491Y-76155071D01*
X202384207Y-76155071D01*
X203000066Y-76155071D01*
X203181183Y-76154820D01*
X203324873Y-76153896D01*
X203436041Y-76152041D01*
X203519589Y-76148996D01*
X203580424Y-76144505D01*
X203623448Y-76138309D01*
X203653566Y-76130150D01*
X203675683Y-76119771D01*
X203676102Y-76119523D01*
X203721482Y-76079928D01*
X203769257Y-76019178D01*
X203790493Y-75984367D01*
X203835370Y-75865005D01*
X203843608Y-75746386D01*
X203817117Y-75635868D01*
X203757807Y-75540810D01*
X203667586Y-75468571D01*
X203654927Y-75461863D01*
X203625536Y-75447819D01*
X203595981Y-75436845D01*
X203560846Y-75428563D01*
X203514712Y-75422596D01*
X203452161Y-75418565D01*
X203367776Y-75416091D01*
X203256139Y-75414798D01*
X203111833Y-75414307D01*
X202972389Y-75414238D01*
X202384207Y-75414238D01*
X202384207Y-76155071D01*
X200318491Y-76155071D01*
X200318349Y-76122325D01*
X200317424Y-75853263D01*
X200316557Y-75548700D01*
X200316224Y-75414238D01*
X200315709Y-75206366D01*
X200314843Y-74823991D01*
X200314834Y-74819896D01*
X200314040Y-74420317D01*
X200313584Y-74105021D01*
X202384207Y-74105021D01*
X202943619Y-74098171D01*
X203112848Y-74095927D01*
X203245017Y-74093551D01*
X203345397Y-74090611D01*
X203419259Y-74086676D01*
X203471876Y-74081316D01*
X203508520Y-74074099D01*
X203534461Y-74064596D01*
X203554972Y-74052374D01*
X203561436Y-74047680D01*
X203645172Y-73968654D01*
X203693688Y-73878059D01*
X203713213Y-73774805D01*
X203711444Y-73659024D01*
X203681481Y-73566684D01*
X203619017Y-73486280D01*
X203597946Y-73466807D01*
X203525734Y-73403404D01*
X202384207Y-73403404D01*
X202384207Y-74105021D01*
X200313584Y-74105021D01*
X200313520Y-74061118D01*
X200313290Y-73740348D01*
X200313366Y-73456055D01*
X200313449Y-73403404D01*
X200313762Y-73206286D01*
X200314495Y-72989090D01*
X200315580Y-72802514D01*
X200317034Y-72644606D01*
X200318871Y-72513414D01*
X200321107Y-72406987D01*
X200323759Y-72323373D01*
X200326841Y-72260618D01*
X200330370Y-72216772D01*
X200334361Y-72189882D01*
X200336001Y-72183709D01*
X200344493Y-72156067D01*
X200352554Y-72131889D01*
X200362907Y-72110945D01*
X200378274Y-72093004D01*
X200401378Y-72077835D01*
X200434941Y-72065207D01*
X200481686Y-72054888D01*
X200544336Y-72046649D01*
X200625613Y-72040258D01*
X200728241Y-72035484D01*
X200854941Y-72032096D01*
X201008436Y-72029863D01*
X201191449Y-72028555D01*
X201406703Y-72027941D01*
X201656920Y-72027789D01*
X201944823Y-72027868D01*
X168493733Y-72030842D02*
X168727308Y-72031284D01*
X168727308Y-72031284D02*
X168976321Y-72032084D01*
X168976321Y-72032084D02*
X169237411Y-72033248D01*
X169237411Y-72033248D02*
X169311965Y-72033638D01*
X169311965Y-72033638D02*
X169629719Y-72035381D01*
X169629719Y-72035381D02*
X169908377Y-72037076D01*
X169908377Y-72037076D02*
X170151175Y-72038919D01*
X170151175Y-72038919D02*
X170361349Y-72041106D01*
X170361349Y-72041106D02*
X170542137Y-72043833D01*
X170542137Y-72043833D02*
X170696775Y-72047295D01*
X170696775Y-72047295D02*
X170828498Y-72051688D01*
X170828498Y-72051688D02*
X170940545Y-72057208D01*
X170940545Y-72057208D02*
X171036150Y-72064050D01*
X171036150Y-72064050D02*
X171118550Y-72072410D01*
X171118550Y-72072410D02*
X171190983Y-72082484D01*
X171190983Y-72082484D02*
X171256684Y-72094467D01*
X171256684Y-72094467D02*
X171318890Y-72108556D01*
X171318890Y-72108556D02*
X171380837Y-72124945D01*
X171380837Y-72124945D02*
X171445762Y-72143830D01*
X171445762Y-72143830D02*
X171516902Y-72165407D01*
X171516902Y-72165407D02*
X171523207Y-72167332D01*
X171523207Y-72167332D02*
X171811196Y-72274179D01*
X171811196Y-72274179D02*
X172070862Y-72409661D01*
X172070862Y-72409661D02*
X172300726Y-72572352D01*
X172300726Y-72572352D02*
X172499313Y-72760825D01*
X172499313Y-72760825D02*
X172665145Y-72973654D01*
X172665145Y-72973654D02*
X172796746Y-73209411D01*
X172796746Y-73209411D02*
X172892639Y-73466672D01*
X172892639Y-73466672D02*
X172901604Y-73498654D01*
X172901604Y-73498654D02*
X172930097Y-73643860D01*
X172930097Y-73643860D02*
X172946673Y-73816107D01*
X172946673Y-73816107D02*
X172951306Y-74001805D01*
X172951306Y-74001805D02*
X172943972Y-74187365D01*
X172943972Y-74187365D02*
X172924643Y-74359200D01*
X172924643Y-74359200D02*
X172903440Y-74466167D01*
X172903440Y-74466167D02*
X172819407Y-74726823D01*
X172819407Y-74726823D02*
X172703120Y-74960280D01*
X172703120Y-74960280D02*
X172555274Y-75165778D01*
X172555274Y-75165778D02*
X172376570Y-75342553D01*
X172376570Y-75342553D02*
X172167704Y-75489843D01*
X172167704Y-75489843D02*
X171929374Y-75606887D01*
X171929374Y-75606887D02*
X171822891Y-75646094D01*
X171822891Y-75646094D02*
X171680265Y-75689548D01*
X171680265Y-75689548D02*
X171530844Y-75725651D01*
X171530844Y-75725651D02*
X171369690Y-75754910D01*
X171369690Y-75754910D02*
X171191865Y-75777832D01*
X171191865Y-75777832D02*
X170992431Y-75794923D01*
X170992431Y-75794923D02*
X170766450Y-75806690D01*
X170766450Y-75806690D02*
X170508982Y-75813638D01*
X170508982Y-75813638D02*
X170215091Y-75816276D01*
X170215091Y-75816276D02*
X170163249Y-75816332D01*
X170163249Y-75816332D02*
X169512374Y-75816404D01*
X169512374Y-75816404D02*
X169512374Y-77386971D01*
X169512374Y-77386971D02*
X169368441Y-77530904D01*
X169368441Y-77530904D02*
X168461449Y-77530057D01*
X168461449Y-77530057D02*
X168235417Y-77529646D01*
X168235417Y-77529646D02*
X168047964Y-77528792D01*
X168047964Y-77528792D02*
X167895336Y-77527369D01*
X167895336Y-77527369D02*
X167773780Y-77525252D01*
X167773780Y-77525252D02*
X167679542Y-77522316D01*
X167679542Y-77522316D02*
X167608870Y-77518435D01*
X167608870Y-77518435D02*
X167558009Y-77513486D01*
X167558009Y-77513486D02*
X167523207Y-77507343D01*
X167523207Y-77507343D02*
X167500710Y-77499880D01*
X167500710Y-77499880D02*
X167496781Y-77497910D01*
X167496781Y-77497910D02*
X167447720Y-77462108D01*
X167447720Y-77462108D02*
X167417406Y-77426065D01*
X167417406Y-77426065D02*
X167413653Y-77397715D01*
X167413653Y-77397715D02*
X167410257Y-77327338D01*
X167410257Y-77327338D02*
X167407217Y-77214904D01*
X167407217Y-77214904D02*
X167404534Y-77060381D01*
X167404534Y-77060381D02*
X167402207Y-76863740D01*
X167402207Y-76863740D02*
X167400235Y-76624951D01*
X167400235Y-76624951D02*
X167398620Y-76343983D01*
X167398620Y-76343983D02*
X167397359Y-76020806D01*
X167397359Y-76020806D02*
X167396454Y-75655389D01*
X167396454Y-75655389D02*
X167395903Y-75247703D01*
X167395903Y-75247703D02*
X167395708Y-74797717D01*
X167395708Y-74797717D02*
X167395707Y-74772932D01*
X167395707Y-74772932D02*
X167395707Y-73509238D01*
X167395707Y-73509238D02*
X169512374Y-73509238D01*
X169512374Y-73509238D02*
X169512374Y-74355904D01*
X169512374Y-74355904D02*
X170025666Y-74355786D01*
X170025666Y-74355786D02*
X170177862Y-74354852D01*
X170177862Y-74354852D02*
X170317973Y-74352285D01*
X170317973Y-74352285D02*
X170439326Y-74348334D01*
X170439326Y-74348334D02*
X170535249Y-74343247D01*
X170535249Y-74343247D02*
X170599070Y-74337270D01*
X170599070Y-74337270D02*
X170617675Y-74333806D01*
X170617675Y-74333806D02*
X170710249Y-74292073D01*
X170710249Y-74292073D02*
X170794221Y-74226326D01*
X170794221Y-74226326D02*
X170853042Y-74149624D01*
X170853042Y-74149624D02*
X170854389Y-74147008D01*
X170854389Y-74147008D02*
X170892701Y-74030806D01*
X170892701Y-74030806D02*
X170898368Y-73908116D01*
X170898368Y-73908116D02*
X170874259Y-73788014D01*
X170874259Y-73788014D02*
X170823245Y-73679575D01*
X170823245Y-73679575D02*
X170748196Y-73591872D01*
X170748196Y-73591872D02*
X170661676Y-73537835D01*
X170661676Y-73537835D02*
X170626975Y-73528268D01*
X170626975Y-73528268D02*
X170571374Y-73520889D01*
X170571374Y-73520889D02*
X170490595Y-73515497D01*
X170490595Y-73515497D02*
X170380362Y-73511892D01*
X170380362Y-73511892D02*
X170236399Y-73509872D01*
X170236399Y-73509872D02*
X170054430Y-73509238D01*
X170054430Y-73509238D02*
X169512374Y-73509238D01*
X169512374Y-73509238D02*
X167395707Y-73509238D01*
X167395707Y-73509238D02*
X167395707Y-72160344D01*
X167395707Y-72160344D02*
X167450996Y-72105055D01*
X167450996Y-72105055D02*
X167507967Y-72063307D01*
X167507967Y-72063307D02*
X167570367Y-72037787D01*
X167570367Y-72037787D02*
X167573379Y-72037179D01*
X167573379Y-72037179D02*
X167604755Y-72035311D01*
X167604755Y-72035311D02*
X167675102Y-72033752D01*
X167675102Y-72033752D02*
X167781057Y-72032510D01*
X167781057Y-72032510D02*
X167919259Y-72031591D01*
X167919259Y-72031591D02*
X168086347Y-72031002D01*
X168086347Y-72031002D02*
X168278959Y-72030750D01*
X168278959Y-72030750D02*
X168493733Y-72030842D01*
X168493733Y-72030842D02*
X168493733Y-72030842D01*
G36*
X167450996Y-72105055D02*
G01*
X167507967Y-72063307D01*
X167570367Y-72037787D01*
X167573379Y-72037179D01*
X167604755Y-72035311D01*
X167675102Y-72033752D01*
X167781057Y-72032510D01*
X167919259Y-72031591D01*
X168086347Y-72031002D01*
X168278959Y-72030750D01*
X168493733Y-72030842D01*
X168727308Y-72031284D01*
X168976321Y-72032084D01*
X169237411Y-72033248D01*
X169311965Y-72033638D01*
X169629719Y-72035381D01*
X169908377Y-72037076D01*
X170151175Y-72038919D01*
X170361349Y-72041106D01*
X170542137Y-72043833D01*
X170696775Y-72047295D01*
X170828498Y-72051688D01*
X170940545Y-72057208D01*
X171036150Y-72064050D01*
X171118550Y-72072410D01*
X171190983Y-72082484D01*
X171256684Y-72094467D01*
X171318890Y-72108556D01*
X171380837Y-72124945D01*
X171445762Y-72143830D01*
X171516902Y-72165407D01*
X171523207Y-72167332D01*
X171811196Y-72274179D01*
X172070862Y-72409661D01*
X172300726Y-72572352D01*
X172499313Y-72760825D01*
X172665145Y-72973654D01*
X172796746Y-73209411D01*
X172892639Y-73466672D01*
X172901604Y-73498654D01*
X172930097Y-73643860D01*
X172946673Y-73816107D01*
X172951306Y-74001805D01*
X172943972Y-74187365D01*
X172924643Y-74359200D01*
X172903440Y-74466167D01*
X172819407Y-74726823D01*
X172703120Y-74960280D01*
X172555274Y-75165778D01*
X172376570Y-75342553D01*
X172167704Y-75489843D01*
X171929374Y-75606887D01*
X171822891Y-75646094D01*
X171680265Y-75689548D01*
X171530844Y-75725651D01*
X171369690Y-75754910D01*
X171191865Y-75777832D01*
X170992431Y-75794923D01*
X170766450Y-75806690D01*
X170508982Y-75813638D01*
X170215091Y-75816276D01*
X170163249Y-75816332D01*
X169512374Y-75816404D01*
X169512374Y-77386971D01*
X169368441Y-77530904D01*
X168461449Y-77530057D01*
X168235417Y-77529646D01*
X168047964Y-77528792D01*
X167895336Y-77527369D01*
X167773780Y-77525252D01*
X167679542Y-77522316D01*
X167608870Y-77518435D01*
X167558009Y-77513486D01*
X167523207Y-77507343D01*
X167500710Y-77499880D01*
X167496781Y-77497910D01*
X167447720Y-77462108D01*
X167417406Y-77426065D01*
X167413653Y-77397715D01*
X167410257Y-77327338D01*
X167407217Y-77214904D01*
X167404534Y-77060381D01*
X167402207Y-76863740D01*
X167400235Y-76624951D01*
X167398620Y-76343983D01*
X167397359Y-76020806D01*
X167396454Y-75655389D01*
X167395903Y-75247703D01*
X167395708Y-74797717D01*
X167395707Y-74772932D01*
X167395707Y-74355904D01*
X169512374Y-74355904D01*
X170025666Y-74355786D01*
X170177862Y-74354852D01*
X170317973Y-74352285D01*
X170439326Y-74348334D01*
X170535249Y-74343247D01*
X170599070Y-74337270D01*
X170617675Y-74333806D01*
X170710249Y-74292073D01*
X170794221Y-74226326D01*
X170853042Y-74149624D01*
X170854389Y-74147008D01*
X170892701Y-74030806D01*
X170898368Y-73908116D01*
X170874259Y-73788014D01*
X170823245Y-73679575D01*
X170748196Y-73591872D01*
X170661676Y-73537835D01*
X170626975Y-73528268D01*
X170571374Y-73520889D01*
X170490595Y-73515497D01*
X170380362Y-73511892D01*
X170236399Y-73509872D01*
X170054430Y-73509238D01*
X169512374Y-73509238D01*
X169512374Y-74355904D01*
X167395707Y-74355904D01*
X167395707Y-72160344D01*
X167450996Y-72105055D01*
G37*
X167450996Y-72105055D02*
X167507967Y-72063307D01*
X167570367Y-72037787D01*
X167573379Y-72037179D01*
X167604755Y-72035311D01*
X167675102Y-72033752D01*
X167781057Y-72032510D01*
X167919259Y-72031591D01*
X168086347Y-72031002D01*
X168278959Y-72030750D01*
X168493733Y-72030842D01*
X168727308Y-72031284D01*
X168976321Y-72032084D01*
X169237411Y-72033248D01*
X169311965Y-72033638D01*
X169629719Y-72035381D01*
X169908377Y-72037076D01*
X170151175Y-72038919D01*
X170361349Y-72041106D01*
X170542137Y-72043833D01*
X170696775Y-72047295D01*
X170828498Y-72051688D01*
X170940545Y-72057208D01*
X171036150Y-72064050D01*
X171118550Y-72072410D01*
X171190983Y-72082484D01*
X171256684Y-72094467D01*
X171318890Y-72108556D01*
X171380837Y-72124945D01*
X171445762Y-72143830D01*
X171516902Y-72165407D01*
X171523207Y-72167332D01*
X171811196Y-72274179D01*
X172070862Y-72409661D01*
X172300726Y-72572352D01*
X172499313Y-72760825D01*
X172665145Y-72973654D01*
X172796746Y-73209411D01*
X172892639Y-73466672D01*
X172901604Y-73498654D01*
X172930097Y-73643860D01*
X172946673Y-73816107D01*
X172951306Y-74001805D01*
X172943972Y-74187365D01*
X172924643Y-74359200D01*
X172903440Y-74466167D01*
X172819407Y-74726823D01*
X172703120Y-74960280D01*
X172555274Y-75165778D01*
X172376570Y-75342553D01*
X172167704Y-75489843D01*
X171929374Y-75606887D01*
X171822891Y-75646094D01*
X171680265Y-75689548D01*
X171530844Y-75725651D01*
X171369690Y-75754910D01*
X171191865Y-75777832D01*
X170992431Y-75794923D01*
X170766450Y-75806690D01*
X170508982Y-75813638D01*
X170215091Y-75816276D01*
X170163249Y-75816332D01*
X169512374Y-75816404D01*
X169512374Y-77386971D01*
X169368441Y-77530904D01*
X168461449Y-77530057D01*
X168235417Y-77529646D01*
X168047964Y-77528792D01*
X167895336Y-77527369D01*
X167773780Y-77525252D01*
X167679542Y-77522316D01*
X167608870Y-77518435D01*
X167558009Y-77513486D01*
X167523207Y-77507343D01*
X167500710Y-77499880D01*
X167496781Y-77497910D01*
X167447720Y-77462108D01*
X167417406Y-77426065D01*
X167413653Y-77397715D01*
X167410257Y-77327338D01*
X167407217Y-77214904D01*
X167404534Y-77060381D01*
X167402207Y-76863740D01*
X167400235Y-76624951D01*
X167398620Y-76343983D01*
X167397359Y-76020806D01*
X167396454Y-75655389D01*
X167395903Y-75247703D01*
X167395708Y-74797717D01*
X167395707Y-74772932D01*
X167395707Y-74355904D01*
X169512374Y-74355904D01*
X170025666Y-74355786D01*
X170177862Y-74354852D01*
X170317973Y-74352285D01*
X170439326Y-74348334D01*
X170535249Y-74343247D01*
X170599070Y-74337270D01*
X170617675Y-74333806D01*
X170710249Y-74292073D01*
X170794221Y-74226326D01*
X170853042Y-74149624D01*
X170854389Y-74147008D01*
X170892701Y-74030806D01*
X170898368Y-73908116D01*
X170874259Y-73788014D01*
X170823245Y-73679575D01*
X170748196Y-73591872D01*
X170661676Y-73537835D01*
X170626975Y-73528268D01*
X170571374Y-73520889D01*
X170490595Y-73515497D01*
X170380362Y-73511892D01*
X170236399Y-73509872D01*
X170054430Y-73509238D01*
X169512374Y-73509238D01*
X169512374Y-74355904D01*
X167395707Y-74355904D01*
X167395707Y-72160344D01*
X167450996Y-72105055D01*
X184904572Y-72030456D02*
X185137716Y-72031838D01*
X185137716Y-72031838D02*
X185151098Y-72031933D01*
X185151098Y-72031933D02*
X186026072Y-72038154D01*
X186026072Y-72038154D02*
X186077139Y-72097543D01*
X186077139Y-72097543D02*
X186111506Y-72149441D01*
X186111506Y-72149441D02*
X186127964Y-72197751D01*
X186127964Y-72197751D02*
X186128207Y-72202481D01*
X186128207Y-72202481D02*
X186121148Y-72227738D01*
X186121148Y-72227738D02*
X186100666Y-72289886D01*
X186100666Y-72289886D02*
X186067802Y-72386029D01*
X186067802Y-72386029D02*
X186023597Y-72513273D01*
X186023597Y-72513273D02*
X185969092Y-72668724D01*
X185969092Y-72668724D02*
X185905329Y-72849485D01*
X185905329Y-72849485D02*
X185833350Y-73052663D01*
X185833350Y-73052663D02*
X185754194Y-73275362D01*
X185754194Y-73275362D02*
X185668905Y-73514688D01*
X185668905Y-73514688D02*
X185578522Y-73767745D01*
X185578522Y-73767745D02*
X185484088Y-74031639D01*
X185484088Y-74031639D02*
X185386643Y-74303475D01*
X185386643Y-74303475D02*
X185287229Y-74580359D01*
X185287229Y-74580359D02*
X185186887Y-74859394D01*
X185186887Y-74859394D02*
X185086659Y-75137687D01*
X185086659Y-75137687D02*
X184987585Y-75412343D01*
X184987585Y-75412343D02*
X184890708Y-75680466D01*
X184890708Y-75680466D02*
X184797068Y-75939162D01*
X184797068Y-75939162D02*
X184707706Y-76185536D01*
X184707706Y-76185536D02*
X184623665Y-76416693D01*
X184623665Y-76416693D02*
X184545985Y-76629738D01*
X184545985Y-76629738D02*
X184475707Y-76821777D01*
X184475707Y-76821777D02*
X184413873Y-76989914D01*
X184413873Y-76989914D02*
X184361525Y-77131254D01*
X184361525Y-77131254D02*
X184319702Y-77242904D01*
X184319702Y-77242904D02*
X184289448Y-77321967D01*
X184289448Y-77321967D02*
X184271802Y-77365549D01*
X184271802Y-77365549D02*
X184268649Y-77372154D01*
X184268649Y-77372154D02*
X184227743Y-77420301D01*
X184227743Y-77420301D02*
X184166476Y-77467480D01*
X184166476Y-77467480D02*
X184138863Y-77483279D01*
X184138863Y-77483279D02*
X184116514Y-77494270D01*
X184116514Y-77494270D02*
X184094099Y-77503420D01*
X184094099Y-77503420D02*
X184067738Y-77510891D01*
X184067738Y-77510891D02*
X184033555Y-77516847D01*
X184033555Y-77516847D02*
X183987671Y-77521451D01*
X183987671Y-77521451D02*
X183926210Y-77524867D01*
X183926210Y-77524867D02*
X183845293Y-77527256D01*
X183845293Y-77527256D02*
X183741043Y-77528783D01*
X183741043Y-77528783D02*
X183609582Y-77529611D01*
X183609582Y-77529611D02*
X183447033Y-77529902D01*
X183447033Y-77529902D02*
X183249517Y-77529820D01*
X183249517Y-77529820D02*
X183038681Y-77529562D01*
X183038681Y-77529562D02*
X182799650Y-77528798D01*
X182799650Y-77528798D02*
X182585658Y-77527212D01*
X182585658Y-77527212D02*
X182399429Y-77524862D01*
X182399429Y-77524862D02*
X182243687Y-77521805D01*
X182243687Y-77521805D02*
X182121158Y-77518099D01*
X182121158Y-77518099D02*
X182034565Y-77513802D01*
X182034565Y-77513802D02*
X181986634Y-77508971D01*
X181986634Y-77508971D02*
X181979541Y-77507182D01*
X181979541Y-77507182D02*
X181890279Y-77449935D01*
X181890279Y-77449935D02*
X181814872Y-77357387D01*
X181814872Y-77357387D02*
X181766173Y-77257128D01*
X181766173Y-77257128D02*
X181729518Y-77158529D01*
X181729518Y-77158529D02*
X181681915Y-77029191D01*
X181681915Y-77029191D02*
X181624401Y-76871997D01*
X181624401Y-76871997D02*
X181558013Y-76689832D01*
X181558013Y-76689832D02*
X181483785Y-76485578D01*
X181483785Y-76485578D02*
X181402755Y-76262119D01*
X181402755Y-76262119D02*
X181315959Y-76022338D01*
X181315959Y-76022338D02*
X181224434Y-75769120D01*
X181224434Y-75769120D02*
X181129215Y-75505349D01*
X181129215Y-75505349D02*
X181031340Y-75233906D01*
X181031340Y-75233906D02*
X180931843Y-74957677D01*
X180931843Y-74957677D02*
X180831763Y-74679544D01*
X180831763Y-74679544D02*
X180732134Y-74402392D01*
X180732134Y-74402392D02*
X180633994Y-74129104D01*
X180633994Y-74129104D02*
X180538378Y-73862564D01*
X180538378Y-73862564D02*
X180446324Y-73605655D01*
X180446324Y-73605655D02*
X180358867Y-73361260D01*
X180358867Y-73361260D02*
X180277044Y-73132264D01*
X180277044Y-73132264D02*
X180201890Y-72921550D01*
X180201890Y-72921550D02*
X180134444Y-72732002D01*
X180134444Y-72732002D02*
X180075740Y-72566502D01*
X180075740Y-72566502D02*
X180026815Y-72427936D01*
X180026815Y-72427936D02*
X179988705Y-72319186D01*
X179988705Y-72319186D02*
X179962447Y-72243137D01*
X179962447Y-72243137D02*
X179949078Y-72202670D01*
X179949078Y-72202670D02*
X179947541Y-72196783D01*
X179947541Y-72196783D02*
X179960764Y-72154718D01*
X179960764Y-72154718D02*
X179993145Y-72104124D01*
X179993145Y-72104124D02*
X179998609Y-72097543D01*
X179998609Y-72097543D02*
X180049677Y-72038154D01*
X180049677Y-72038154D02*
X180930464Y-72032187D01*
X180930464Y-72032187D02*
X181174401Y-72031109D01*
X181174401Y-72031109D02*
X181386285Y-72031367D01*
X181386285Y-72031367D02*
X181564249Y-72032931D01*
X181564249Y-72032931D02*
X181706423Y-72035769D01*
X181706423Y-72035769D02*
X181810937Y-72039850D01*
X181810937Y-72039850D02*
X181875922Y-72045144D01*
X181875922Y-72045144D02*
X181892811Y-72048182D01*
X181892811Y-72048182D02*
X181973489Y-72087364D01*
X181973489Y-72087364D02*
X182054506Y-72158007D01*
X182054506Y-72158007D02*
X182056330Y-72159996D01*
X182056330Y-72159996D02*
X182072164Y-72178082D01*
X182072164Y-72178082D02*
X182087101Y-72197867D01*
X182087101Y-72197867D02*
X182102111Y-72222256D01*
X182102111Y-72222256D02*
X182118166Y-72254156D01*
X182118166Y-72254156D02*
X182136234Y-72296471D01*
X182136234Y-72296471D02*
X182157287Y-72352109D01*
X182157287Y-72352109D02*
X182182295Y-72423974D01*
X182182295Y-72423974D02*
X182212228Y-72514973D01*
X182212228Y-72514973D02*
X182248056Y-72628010D01*
X182248056Y-72628010D02*
X182290751Y-72765993D01*
X182290751Y-72765993D02*
X182341282Y-72931825D01*
X182341282Y-72931825D02*
X182400619Y-73128414D01*
X182400619Y-73128414D02*
X182469733Y-73358664D01*
X182469733Y-73358664D02*
X182549595Y-73625482D01*
X182549595Y-73625482D02*
X182582791Y-73736492D01*
X182582791Y-73736492D02*
X182655185Y-73978099D01*
X182655185Y-73978099D02*
X182724232Y-74207521D01*
X182724232Y-74207521D02*
X182788956Y-74421585D01*
X182788956Y-74421585D02*
X182848384Y-74617118D01*
X182848384Y-74617118D02*
X182901541Y-74790943D01*
X182901541Y-74790943D02*
X182947453Y-74939888D01*
X182947453Y-74939888D02*
X182985147Y-75060779D01*
X182985147Y-75060779D02*
X183013648Y-75150440D01*
X183013648Y-75150440D02*
X183031982Y-75205698D01*
X183031982Y-75205698D02*
X183039087Y-75223436D01*
X183039087Y-75223436D02*
X183047042Y-75203768D01*
X183047042Y-75203768D02*
X183066019Y-75146920D01*
X183066019Y-75146920D02*
X183094967Y-75056289D01*
X183094967Y-75056289D02*
X183132840Y-74935272D01*
X183132840Y-74935272D02*
X183178588Y-74787265D01*
X183178588Y-74787265D02*
X183231163Y-74615667D01*
X183231163Y-74615667D02*
X183289517Y-74423873D01*
X183289517Y-74423873D02*
X183352601Y-74215280D01*
X183352601Y-74215280D02*
X183419367Y-73993285D01*
X183419367Y-73993285D02*
X183439149Y-73927279D01*
X183439149Y-73927279D02*
X183530430Y-73622496D01*
X183530430Y-73622496D02*
X183610406Y-73355637D01*
X183610406Y-73355637D02*
X183679935Y-73124079D01*
X183679935Y-73124079D02*
X183739874Y-72925197D01*
X183739874Y-72925197D02*
X183791081Y-72756368D01*
X183791081Y-72756368D02*
X183834414Y-72614967D01*
X183834414Y-72614967D02*
X183870729Y-72498370D01*
X183870729Y-72498370D02*
X183900883Y-72403953D01*
X183900883Y-72403953D02*
X183925735Y-72329092D01*
X183925735Y-72329092D02*
X183946141Y-72271164D01*
X183946141Y-72271164D02*
X183962959Y-72227542D01*
X183962959Y-72227542D02*
X183977046Y-72195605D01*
X183977046Y-72195605D02*
X183989259Y-72172727D01*
X183989259Y-72172727D02*
X184000456Y-72156284D01*
X184000456Y-72156284D02*
X184011494Y-72143653D01*
X184011494Y-72143653D02*
X184023230Y-72132209D01*
X184023230Y-72132209D02*
X184026694Y-72128922D01*
X184026694Y-72128922D02*
X184054404Y-72104811D01*
X184054404Y-72104811D02*
X184085003Y-72084773D01*
X184085003Y-72084773D02*
X184122414Y-72068469D01*
X184122414Y-72068469D02*
X184170559Y-72055560D01*
X184170559Y-72055560D02*
X184233363Y-72045707D01*
X184233363Y-72045707D02*
X184314748Y-72038574D01*
X184314748Y-72038574D02*
X184418638Y-72033820D01*
X184418638Y-72033820D02*
X184548956Y-72031108D01*
X184548956Y-72031108D02*
X184709627Y-72030100D01*
X184709627Y-72030100D02*
X184904572Y-72030456D01*
X184904572Y-72030456D02*
X184904572Y-72030456D01*
G36*
X184904572Y-72030456D02*
G01*
X185137716Y-72031838D01*
X185151098Y-72031933D01*
X186026072Y-72038154D01*
X186077139Y-72097543D01*
X186111506Y-72149441D01*
X186127964Y-72197751D01*
X186128207Y-72202481D01*
X186121148Y-72227738D01*
X186100666Y-72289886D01*
X186067802Y-72386029D01*
X186023597Y-72513273D01*
X185969092Y-72668724D01*
X185905329Y-72849485D01*
X185833350Y-73052663D01*
X185754194Y-73275362D01*
X185668905Y-73514688D01*
X185578522Y-73767745D01*
X185484088Y-74031639D01*
X185386643Y-74303475D01*
X185287229Y-74580359D01*
X185186887Y-74859394D01*
X185086659Y-75137687D01*
X184987585Y-75412343D01*
X184890708Y-75680466D01*
X184797068Y-75939162D01*
X184707706Y-76185536D01*
X184623665Y-76416693D01*
X184545985Y-76629738D01*
X184475707Y-76821777D01*
X184413873Y-76989914D01*
X184361525Y-77131254D01*
X184319702Y-77242904D01*
X184289448Y-77321967D01*
X184271802Y-77365549D01*
X184268649Y-77372154D01*
X184227743Y-77420301D01*
X184166476Y-77467480D01*
X184138863Y-77483279D01*
X184116514Y-77494270D01*
X184094099Y-77503420D01*
X184067738Y-77510891D01*
X184033555Y-77516847D01*
X183987671Y-77521451D01*
X183926210Y-77524867D01*
X183845293Y-77527256D01*
X183741043Y-77528783D01*
X183609582Y-77529611D01*
X183447033Y-77529902D01*
X183249517Y-77529820D01*
X183038681Y-77529562D01*
X182799650Y-77528798D01*
X182585658Y-77527212D01*
X182399429Y-77524862D01*
X182243687Y-77521805D01*
X182121158Y-77518099D01*
X182034565Y-77513802D01*
X181986634Y-77508971D01*
X181979541Y-77507182D01*
X181890279Y-77449935D01*
X181814872Y-77357387D01*
X181766173Y-77257128D01*
X181729518Y-77158529D01*
X181681915Y-77029191D01*
X181624401Y-76871997D01*
X181558013Y-76689832D01*
X181483785Y-76485578D01*
X181402755Y-76262119D01*
X181315959Y-76022338D01*
X181224434Y-75769120D01*
X181129215Y-75505349D01*
X181031340Y-75233906D01*
X180931843Y-74957677D01*
X180831763Y-74679544D01*
X180732134Y-74402392D01*
X180633994Y-74129104D01*
X180538378Y-73862564D01*
X180446324Y-73605655D01*
X180358867Y-73361260D01*
X180277044Y-73132264D01*
X180201890Y-72921550D01*
X180134444Y-72732002D01*
X180075740Y-72566502D01*
X180026815Y-72427936D01*
X179988705Y-72319186D01*
X179962447Y-72243137D01*
X179949078Y-72202670D01*
X179947541Y-72196783D01*
X179960764Y-72154718D01*
X179993145Y-72104124D01*
X179998609Y-72097543D01*
X180049677Y-72038154D01*
X180930464Y-72032187D01*
X181174401Y-72031109D01*
X181386285Y-72031367D01*
X181564249Y-72032931D01*
X181706423Y-72035769D01*
X181810937Y-72039850D01*
X181875922Y-72045144D01*
X181892811Y-72048182D01*
X181973489Y-72087364D01*
X182054506Y-72158007D01*
X182056330Y-72159996D01*
X182072164Y-72178082D01*
X182087101Y-72197867D01*
X182102111Y-72222256D01*
X182118166Y-72254156D01*
X182136234Y-72296471D01*
X182157287Y-72352109D01*
X182182295Y-72423974D01*
X182212228Y-72514973D01*
X182248056Y-72628010D01*
X182290751Y-72765993D01*
X182341282Y-72931825D01*
X182400619Y-73128414D01*
X182469733Y-73358664D01*
X182549595Y-73625482D01*
X182582791Y-73736492D01*
X182655185Y-73978099D01*
X182724232Y-74207521D01*
X182788956Y-74421585D01*
X182848384Y-74617118D01*
X182901541Y-74790943D01*
X182947453Y-74939888D01*
X182985147Y-75060779D01*
X183013648Y-75150440D01*
X183031982Y-75205698D01*
X183039087Y-75223436D01*
X183047042Y-75203768D01*
X183066019Y-75146920D01*
X183094967Y-75056289D01*
X183132840Y-74935272D01*
X183178588Y-74787265D01*
X183231163Y-74615667D01*
X183289517Y-74423873D01*
X183352601Y-74215280D01*
X183419367Y-73993285D01*
X183439149Y-73927279D01*
X183530430Y-73622496D01*
X183610406Y-73355637D01*
X183679935Y-73124079D01*
X183739874Y-72925197D01*
X183791081Y-72756368D01*
X183834414Y-72614967D01*
X183870729Y-72498370D01*
X183900883Y-72403953D01*
X183925735Y-72329092D01*
X183946141Y-72271164D01*
X183962959Y-72227542D01*
X183977046Y-72195605D01*
X183989259Y-72172727D01*
X184000456Y-72156284D01*
X184011494Y-72143653D01*
X184023230Y-72132209D01*
X184026694Y-72128922D01*
X184054404Y-72104811D01*
X184085003Y-72084773D01*
X184122414Y-72068469D01*
X184170559Y-72055560D01*
X184233363Y-72045707D01*
X184314748Y-72038574D01*
X184418638Y-72033820D01*
X184548956Y-72031108D01*
X184709627Y-72030100D01*
X184904572Y-72030456D01*
G37*
X184904572Y-72030456D02*
X185137716Y-72031838D01*
X185151098Y-72031933D01*
X186026072Y-72038154D01*
X186077139Y-72097543D01*
X186111506Y-72149441D01*
X186127964Y-72197751D01*
X186128207Y-72202481D01*
X186121148Y-72227738D01*
X186100666Y-72289886D01*
X186067802Y-72386029D01*
X186023597Y-72513273D01*
X185969092Y-72668724D01*
X185905329Y-72849485D01*
X185833350Y-73052663D01*
X185754194Y-73275362D01*
X185668905Y-73514688D01*
X185578522Y-73767745D01*
X185484088Y-74031639D01*
X185386643Y-74303475D01*
X185287229Y-74580359D01*
X185186887Y-74859394D01*
X185086659Y-75137687D01*
X184987585Y-75412343D01*
X184890708Y-75680466D01*
X184797068Y-75939162D01*
X184707706Y-76185536D01*
X184623665Y-76416693D01*
X184545985Y-76629738D01*
X184475707Y-76821777D01*
X184413873Y-76989914D01*
X184361525Y-77131254D01*
X184319702Y-77242904D01*
X184289448Y-77321967D01*
X184271802Y-77365549D01*
X184268649Y-77372154D01*
X184227743Y-77420301D01*
X184166476Y-77467480D01*
X184138863Y-77483279D01*
X184116514Y-77494270D01*
X184094099Y-77503420D01*
X184067738Y-77510891D01*
X184033555Y-77516847D01*
X183987671Y-77521451D01*
X183926210Y-77524867D01*
X183845293Y-77527256D01*
X183741043Y-77528783D01*
X183609582Y-77529611D01*
X183447033Y-77529902D01*
X183249517Y-77529820D01*
X183038681Y-77529562D01*
X182799650Y-77528798D01*
X182585658Y-77527212D01*
X182399429Y-77524862D01*
X182243687Y-77521805D01*
X182121158Y-77518099D01*
X182034565Y-77513802D01*
X181986634Y-77508971D01*
X181979541Y-77507182D01*
X181890279Y-77449935D01*
X181814872Y-77357387D01*
X181766173Y-77257128D01*
X181729518Y-77158529D01*
X181681915Y-77029191D01*
X181624401Y-76871997D01*
X181558013Y-76689832D01*
X181483785Y-76485578D01*
X181402755Y-76262119D01*
X181315959Y-76022338D01*
X181224434Y-75769120D01*
X181129215Y-75505349D01*
X181031340Y-75233906D01*
X180931843Y-74957677D01*
X180831763Y-74679544D01*
X180732134Y-74402392D01*
X180633994Y-74129104D01*
X180538378Y-73862564D01*
X180446324Y-73605655D01*
X180358867Y-73361260D01*
X180277044Y-73132264D01*
X180201890Y-72921550D01*
X180134444Y-72732002D01*
X180075740Y-72566502D01*
X180026815Y-72427936D01*
X179988705Y-72319186D01*
X179962447Y-72243137D01*
X179949078Y-72202670D01*
X179947541Y-72196783D01*
X179960764Y-72154718D01*
X179993145Y-72104124D01*
X179998609Y-72097543D01*
X180049677Y-72038154D01*
X180930464Y-72032187D01*
X181174401Y-72031109D01*
X181386285Y-72031367D01*
X181564249Y-72032931D01*
X181706423Y-72035769D01*
X181810937Y-72039850D01*
X181875922Y-72045144D01*
X181892811Y-72048182D01*
X181973489Y-72087364D01*
X182054506Y-72158007D01*
X182056330Y-72159996D01*
X182072164Y-72178082D01*
X182087101Y-72197867D01*
X182102111Y-72222256D01*
X182118166Y-72254156D01*
X182136234Y-72296471D01*
X182157287Y-72352109D01*
X182182295Y-72423974D01*
X182212228Y-72514973D01*
X182248056Y-72628010D01*
X182290751Y-72765993D01*
X182341282Y-72931825D01*
X182400619Y-73128414D01*
X182469733Y-73358664D01*
X182549595Y-73625482D01*
X182582791Y-73736492D01*
X182655185Y-73978099D01*
X182724232Y-74207521D01*
X182788956Y-74421585D01*
X182848384Y-74617118D01*
X182901541Y-74790943D01*
X182947453Y-74939888D01*
X182985147Y-75060779D01*
X183013648Y-75150440D01*
X183031982Y-75205698D01*
X183039087Y-75223436D01*
X183047042Y-75203768D01*
X183066019Y-75146920D01*
X183094967Y-75056289D01*
X183132840Y-74935272D01*
X183178588Y-74787265D01*
X183231163Y-74615667D01*
X183289517Y-74423873D01*
X183352601Y-74215280D01*
X183419367Y-73993285D01*
X183439149Y-73927279D01*
X183530430Y-73622496D01*
X183610406Y-73355637D01*
X183679935Y-73124079D01*
X183739874Y-72925197D01*
X183791081Y-72756368D01*
X183834414Y-72614967D01*
X183870729Y-72498370D01*
X183900883Y-72403953D01*
X183925735Y-72329092D01*
X183946141Y-72271164D01*
X183962959Y-72227542D01*
X183977046Y-72195605D01*
X183989259Y-72172727D01*
X184000456Y-72156284D01*
X184011494Y-72143653D01*
X184023230Y-72132209D01*
X184026694Y-72128922D01*
X184054404Y-72104811D01*
X184085003Y-72084773D01*
X184122414Y-72068469D01*
X184170559Y-72055560D01*
X184233363Y-72045707D01*
X184314748Y-72038574D01*
X184418638Y-72033820D01*
X184548956Y-72031108D01*
X184709627Y-72030100D01*
X184904572Y-72030456D01*
X188177667Y-72030145D02*
X188417665Y-72030922D01*
X188417665Y-72030922D02*
X188694510Y-72032096D01*
X188694510Y-72032096D02*
X189010933Y-72033629D01*
X189010933Y-72033629D02*
X189013832Y-72033644D01*
X189013832Y-72033644D02*
X189334006Y-72035340D01*
X189334006Y-72035340D02*
X189614761Y-72037032D01*
X189614761Y-72037032D02*
X189859012Y-72038787D01*
X189859012Y-72038787D02*
X190069673Y-72040671D01*
X190069673Y-72040671D02*
X190249659Y-72042752D01*
X190249659Y-72042752D02*
X190401885Y-72045096D01*
X190401885Y-72045096D02*
X190529265Y-72047770D01*
X190529265Y-72047770D02*
X190634713Y-72050840D01*
X190634713Y-72050840D02*
X190721145Y-72054373D01*
X190721145Y-72054373D02*
X190791474Y-72058436D01*
X190791474Y-72058436D02*
X190848616Y-72063095D01*
X190848616Y-72063095D02*
X190895484Y-72068418D01*
X190895484Y-72068418D02*
X190934995Y-72074470D01*
X190934995Y-72074470D02*
X190954207Y-72078048D01*
X190954207Y-72078048D02*
X191275354Y-72157762D01*
X191275354Y-72157762D02*
X191564608Y-72263651D01*
X191564608Y-72263651D02*
X191821487Y-72395394D01*
X191821487Y-72395394D02*
X192045508Y-72552668D01*
X192045508Y-72552668D02*
X192236189Y-72735151D01*
X192236189Y-72735151D02*
X192393047Y-72942521D01*
X192393047Y-72942521D02*
X192479605Y-73096488D01*
X192479605Y-73096488D02*
X192542984Y-73234690D01*
X192542984Y-73234690D02*
X192589705Y-73362730D01*
X192589705Y-73362730D02*
X192621957Y-73491375D01*
X192621957Y-73491375D02*
X192641929Y-73631391D01*
X192641929Y-73631391D02*
X192651809Y-73793543D01*
X192651809Y-73793543D02*
X192653914Y-73953738D01*
X192653914Y-73953738D02*
X192650248Y-74143386D01*
X192650248Y-74143386D02*
X192638383Y-74301985D01*
X192638383Y-74301985D02*
X192616194Y-74440381D01*
X192616194Y-74440381D02*
X192581562Y-74569420D01*
X192581562Y-74569420D02*
X192532364Y-74699948D01*
X192532364Y-74699948D02*
X192489185Y-74795770D01*
X192489185Y-74795770D02*
X192387898Y-74973925D01*
X192387898Y-74973925D02*
X192259669Y-75143637D01*
X192259669Y-75143637D02*
X192113578Y-75294678D01*
X192113578Y-75294678D02*
X191958708Y-75416816D01*
X191958708Y-75416816D02*
X191911580Y-75446476D01*
X191911580Y-75446476D02*
X191850615Y-75482489D01*
X191850615Y-75482489D02*
X192333487Y-76384988D01*
X192333487Y-76384988D02*
X192449967Y-76602986D01*
X192449967Y-76602986D02*
X192547632Y-76786977D01*
X192547632Y-76786977D02*
X192627765Y-76940214D01*
X192627765Y-76940214D02*
X192691650Y-77065950D01*
X192691650Y-77065950D02*
X192740568Y-77167438D01*
X192740568Y-77167438D02*
X192775803Y-77247929D01*
X192775803Y-77247929D02*
X192798637Y-77310676D01*
X192798637Y-77310676D02*
X192810353Y-77358932D01*
X192810353Y-77358932D02*
X192812233Y-77395949D01*
X192812233Y-77395949D02*
X192805561Y-77424980D01*
X192805561Y-77424980D02*
X192791618Y-77449277D01*
X192791618Y-77449277D02*
X192771688Y-77472093D01*
X192771688Y-77472093D02*
X192764919Y-77478950D01*
X192764919Y-77478950D02*
X192712965Y-77530904D01*
X192712965Y-77530904D02*
X191743628Y-77530439D01*
X191743628Y-77530439D02*
X191514402Y-77530234D01*
X191514402Y-77530234D02*
X191323568Y-77529756D01*
X191323568Y-77529756D02*
X191167182Y-77528857D01*
X191167182Y-77528857D02*
X191041303Y-77527388D01*
X191041303Y-77527388D02*
X190941988Y-77525199D01*
X190941988Y-77525199D02*
X190865296Y-77522141D01*
X190865296Y-77522141D02*
X190807283Y-77518064D01*
X190807283Y-77518064D02*
X190764007Y-77512818D01*
X190764007Y-77512818D02*
X190731528Y-77506256D01*
X190731528Y-77506256D02*
X190705901Y-77498226D01*
X190705901Y-77498226D02*
X190687137Y-77490397D01*
X190687137Y-77490397D02*
X190625861Y-77455865D01*
X190625861Y-77455865D02*
X190578212Y-77417462D01*
X190578212Y-77417462D02*
X190568690Y-77406141D01*
X190568690Y-77406141D02*
X190553463Y-77377457D01*
X190553463Y-77377457D02*
X190523193Y-77314422D01*
X190523193Y-77314422D02*
X190479890Y-77221433D01*
X190479890Y-77221433D02*
X190425564Y-77102885D01*
X190425564Y-77102885D02*
X190362226Y-76963173D01*
X190362226Y-76963173D02*
X190291885Y-76806695D01*
X190291885Y-76806695D02*
X190216553Y-76637846D01*
X190216553Y-76637846D02*
X190190177Y-76578439D01*
X190190177Y-76578439D02*
X189842957Y-75795415D01*
X189842957Y-75795415D02*
X189520166Y-75795326D01*
X189520166Y-75795326D02*
X189197374Y-75795238D01*
X189197374Y-75795238D02*
X189197374Y-77386971D01*
X189197374Y-77386971D02*
X189053441Y-77530904D01*
X189053441Y-77530904D02*
X187208375Y-77530904D01*
X187208375Y-77530904D02*
X187139249Y-77469143D01*
X187139249Y-77469143D02*
X187070124Y-77407382D01*
X187070124Y-77407382D02*
X187064584Y-74812155D01*
X187064584Y-74812155D02*
X187063705Y-74419440D01*
X187063705Y-74419440D02*
X187062899Y-74066852D01*
X187062899Y-74066852D02*
X187062266Y-73752181D01*
X187062266Y-73752181D02*
X187061952Y-73509238D01*
X187061952Y-73509238D02*
X189197374Y-73509238D01*
X189197374Y-73509238D02*
X189197374Y-74313571D01*
X189197374Y-74313571D02*
X189732162Y-74313571D01*
X189732162Y-74313571D02*
X189899026Y-74313309D01*
X189899026Y-74313309D02*
X190029107Y-74312286D01*
X190029107Y-74312286D02*
X190127951Y-74310144D01*
X190127951Y-74310144D02*
X190201108Y-74306522D01*
X190201108Y-74306522D02*
X190254124Y-74301064D01*
X190254124Y-74301064D02*
X190292548Y-74293412D01*
X190292548Y-74293412D02*
X190321927Y-74283206D01*
X190321927Y-74283206D02*
X190340176Y-74274300D01*
X190340176Y-74274300D02*
X190403364Y-74223808D01*
X190403364Y-74223808D02*
X190458225Y-74150887D01*
X190458225Y-74150887D02*
X190463158Y-74142008D01*
X190463158Y-74142008D02*
X190490974Y-74081453D01*
X190490974Y-74081453D02*
X190504684Y-74022349D01*
X190504684Y-74022349D02*
X190507371Y-73947208D01*
X190507371Y-73947208D02*
X190505676Y-73900821D01*
X190505676Y-73900821D02*
X190498285Y-73812403D01*
X190498285Y-73812403D02*
X190482826Y-73748087D01*
X190482826Y-73748087D02*
X190453763Y-73689718D01*
X190453763Y-73689718D02*
X190430526Y-73654370D01*
X190430526Y-73654370D02*
X190370065Y-73583096D01*
X190370065Y-73583096D02*
X190308452Y-73538118D01*
X190308452Y-73538118D02*
X190295418Y-73532662D01*
X190295418Y-73532662D02*
X190249660Y-73524608D01*
X190249660Y-73524608D02*
X190165081Y-73518098D01*
X190165081Y-73518098D02*
X190045171Y-73513273D01*
X190045171Y-73513273D02*
X189893420Y-73510273D01*
X189893420Y-73510273D02*
X189713317Y-73509238D01*
X189713317Y-73509238D02*
X189197374Y-73509238D01*
X189197374Y-73509238D02*
X187061952Y-73509238D01*
X187061952Y-73509238D02*
X187061905Y-73473221D01*
X187061905Y-73473221D02*
X187061916Y-73227764D01*
X187061916Y-73227764D02*
X187062398Y-73013603D01*
X187062398Y-73013603D02*
X187063450Y-72828530D01*
X187063450Y-72828530D02*
X187065171Y-72670337D01*
X187065171Y-72670337D02*
X187067662Y-72536818D01*
X187067662Y-72536818D02*
X187071021Y-72425763D01*
X187071021Y-72425763D02*
X187075349Y-72334967D01*
X187075349Y-72334967D02*
X187080743Y-72262221D01*
X187080743Y-72262221D02*
X187087304Y-72205318D01*
X187087304Y-72205318D02*
X187095131Y-72162050D01*
X187095131Y-72162050D02*
X187104323Y-72130209D01*
X187104323Y-72130209D02*
X187114980Y-72107589D01*
X187114980Y-72107589D02*
X187127202Y-72091981D01*
X187127202Y-72091981D02*
X187141087Y-72081179D01*
X187141087Y-72081179D02*
X187156734Y-72072974D01*
X187156734Y-72072974D02*
X187174245Y-72065159D01*
X187174245Y-72065159D02*
X187188566Y-72058274D01*
X187188566Y-72058274D02*
X187203483Y-72052262D01*
X187203483Y-72052262D02*
X187225208Y-72047052D01*
X187225208Y-72047052D02*
X187256472Y-72042606D01*
X187256472Y-72042606D02*
X187300005Y-72038888D01*
X187300005Y-72038888D02*
X187358538Y-72035861D01*
X187358538Y-72035861D02*
X187434802Y-72033488D01*
X187434802Y-72033488D02*
X187531528Y-72031733D01*
X187531528Y-72031733D02*
X187651447Y-72030557D01*
X187651447Y-72030557D02*
X187797289Y-72029925D01*
X187797289Y-72029925D02*
X187971786Y-72029800D01*
X187971786Y-72029800D02*
X188177667Y-72030145D01*
X188177667Y-72030145D02*
X188177667Y-72030145D01*
G36*
X188177667Y-72030145D02*
G01*
X188417665Y-72030922D01*
X188694510Y-72032096D01*
X189010933Y-72033629D01*
X189013832Y-72033644D01*
X189334006Y-72035340D01*
X189614761Y-72037032D01*
X189859012Y-72038787D01*
X190069673Y-72040671D01*
X190249659Y-72042752D01*
X190401885Y-72045096D01*
X190529265Y-72047770D01*
X190634713Y-72050840D01*
X190721145Y-72054373D01*
X190791474Y-72058436D01*
X190848616Y-72063095D01*
X190895484Y-72068418D01*
X190934995Y-72074470D01*
X190954207Y-72078048D01*
X191275354Y-72157762D01*
X191564608Y-72263651D01*
X191821487Y-72395394D01*
X192045508Y-72552668D01*
X192236189Y-72735151D01*
X192393047Y-72942521D01*
X192479605Y-73096488D01*
X192542984Y-73234690D01*
X192589705Y-73362730D01*
X192621957Y-73491375D01*
X192641929Y-73631391D01*
X192651809Y-73793543D01*
X192653914Y-73953738D01*
X192650248Y-74143386D01*
X192638383Y-74301985D01*
X192616194Y-74440381D01*
X192581562Y-74569420D01*
X192532364Y-74699948D01*
X192489185Y-74795770D01*
X192387898Y-74973925D01*
X192259669Y-75143637D01*
X192113578Y-75294678D01*
X191958708Y-75416816D01*
X191911580Y-75446476D01*
X191850615Y-75482489D01*
X192333487Y-76384988D01*
X192449967Y-76602986D01*
X192547632Y-76786977D01*
X192627765Y-76940214D01*
X192691650Y-77065950D01*
X192740568Y-77167438D01*
X192775803Y-77247929D01*
X192798637Y-77310676D01*
X192810353Y-77358932D01*
X192812233Y-77395949D01*
X192805561Y-77424980D01*
X192791618Y-77449277D01*
X192771688Y-77472093D01*
X192764919Y-77478950D01*
X192712965Y-77530904D01*
X191743628Y-77530439D01*
X191514402Y-77530234D01*
X191323568Y-77529756D01*
X191167182Y-77528857D01*
X191041303Y-77527388D01*
X190941988Y-77525199D01*
X190865296Y-77522141D01*
X190807283Y-77518064D01*
X190764007Y-77512818D01*
X190731528Y-77506256D01*
X190705901Y-77498226D01*
X190687137Y-77490397D01*
X190625861Y-77455865D01*
X190578212Y-77417462D01*
X190568690Y-77406141D01*
X190553463Y-77377457D01*
X190523193Y-77314422D01*
X190479890Y-77221433D01*
X190425564Y-77102885D01*
X190362226Y-76963173D01*
X190291885Y-76806695D01*
X190216553Y-76637846D01*
X190190177Y-76578439D01*
X189842957Y-75795415D01*
X189520166Y-75795326D01*
X189197374Y-75795238D01*
X189197374Y-77386971D01*
X189053441Y-77530904D01*
X187208375Y-77530904D01*
X187139249Y-77469143D01*
X187070124Y-77407382D01*
X187064584Y-74812155D01*
X187063705Y-74419440D01*
X187063463Y-74313571D01*
X189197374Y-74313571D01*
X189732162Y-74313571D01*
X189899026Y-74313309D01*
X190029107Y-74312286D01*
X190127951Y-74310144D01*
X190201108Y-74306522D01*
X190254124Y-74301064D01*
X190292548Y-74293412D01*
X190321927Y-74283206D01*
X190340176Y-74274300D01*
X190403364Y-74223808D01*
X190458225Y-74150887D01*
X190463158Y-74142008D01*
X190490974Y-74081453D01*
X190504684Y-74022349D01*
X190507371Y-73947208D01*
X190505676Y-73900821D01*
X190498285Y-73812403D01*
X190482826Y-73748087D01*
X190453763Y-73689718D01*
X190430526Y-73654370D01*
X190370065Y-73583096D01*
X190308452Y-73538118D01*
X190295418Y-73532662D01*
X190249660Y-73524608D01*
X190165081Y-73518098D01*
X190045171Y-73513273D01*
X189893420Y-73510273D01*
X189713317Y-73509238D01*
X189197374Y-73509238D01*
X189197374Y-74313571D01*
X187063463Y-74313571D01*
X187062899Y-74066852D01*
X187062266Y-73752181D01*
X187061952Y-73509238D01*
X187061905Y-73473221D01*
X187061916Y-73227764D01*
X187062398Y-73013603D01*
X187063450Y-72828530D01*
X187065171Y-72670337D01*
X187067662Y-72536818D01*
X187071021Y-72425763D01*
X187075349Y-72334967D01*
X187080743Y-72262221D01*
X187087304Y-72205318D01*
X187095131Y-72162050D01*
X187104323Y-72130209D01*
X187114980Y-72107589D01*
X187127202Y-72091981D01*
X187141087Y-72081179D01*
X187156734Y-72072974D01*
X187174245Y-72065159D01*
X187188566Y-72058274D01*
X187203483Y-72052262D01*
X187225208Y-72047052D01*
X187256472Y-72042606D01*
X187300005Y-72038888D01*
X187358538Y-72035861D01*
X187434802Y-72033488D01*
X187531528Y-72031733D01*
X187651447Y-72030557D01*
X187797289Y-72029925D01*
X187971786Y-72029800D01*
X188177667Y-72030145D01*
G37*
X188177667Y-72030145D02*
X188417665Y-72030922D01*
X188694510Y-72032096D01*
X189010933Y-72033629D01*
X189013832Y-72033644D01*
X189334006Y-72035340D01*
X189614761Y-72037032D01*
X189859012Y-72038787D01*
X190069673Y-72040671D01*
X190249659Y-72042752D01*
X190401885Y-72045096D01*
X190529265Y-72047770D01*
X190634713Y-72050840D01*
X190721145Y-72054373D01*
X190791474Y-72058436D01*
X190848616Y-72063095D01*
X190895484Y-72068418D01*
X190934995Y-72074470D01*
X190954207Y-72078048D01*
X191275354Y-72157762D01*
X191564608Y-72263651D01*
X191821487Y-72395394D01*
X192045508Y-72552668D01*
X192236189Y-72735151D01*
X192393047Y-72942521D01*
X192479605Y-73096488D01*
X192542984Y-73234690D01*
X192589705Y-73362730D01*
X192621957Y-73491375D01*
X192641929Y-73631391D01*
X192651809Y-73793543D01*
X192653914Y-73953738D01*
X192650248Y-74143386D01*
X192638383Y-74301985D01*
X192616194Y-74440381D01*
X192581562Y-74569420D01*
X192532364Y-74699948D01*
X192489185Y-74795770D01*
X192387898Y-74973925D01*
X192259669Y-75143637D01*
X192113578Y-75294678D01*
X191958708Y-75416816D01*
X191911580Y-75446476D01*
X191850615Y-75482489D01*
X192333487Y-76384988D01*
X192449967Y-76602986D01*
X192547632Y-76786977D01*
X192627765Y-76940214D01*
X192691650Y-77065950D01*
X192740568Y-77167438D01*
X192775803Y-77247929D01*
X192798637Y-77310676D01*
X192810353Y-77358932D01*
X192812233Y-77395949D01*
X192805561Y-77424980D01*
X192791618Y-77449277D01*
X192771688Y-77472093D01*
X192764919Y-77478950D01*
X192712965Y-77530904D01*
X191743628Y-77530439D01*
X191514402Y-77530234D01*
X191323568Y-77529756D01*
X191167182Y-77528857D01*
X191041303Y-77527388D01*
X190941988Y-77525199D01*
X190865296Y-77522141D01*
X190807283Y-77518064D01*
X190764007Y-77512818D01*
X190731528Y-77506256D01*
X190705901Y-77498226D01*
X190687137Y-77490397D01*
X190625861Y-77455865D01*
X190578212Y-77417462D01*
X190568690Y-77406141D01*
X190553463Y-77377457D01*
X190523193Y-77314422D01*
X190479890Y-77221433D01*
X190425564Y-77102885D01*
X190362226Y-76963173D01*
X190291885Y-76806695D01*
X190216553Y-76637846D01*
X190190177Y-76578439D01*
X189842957Y-75795415D01*
X189520166Y-75795326D01*
X189197374Y-75795238D01*
X189197374Y-77386971D01*
X189053441Y-77530904D01*
X187208375Y-77530904D01*
X187139249Y-77469143D01*
X187070124Y-77407382D01*
X187064584Y-74812155D01*
X187063705Y-74419440D01*
X187063463Y-74313571D01*
X189197374Y-74313571D01*
X189732162Y-74313571D01*
X189899026Y-74313309D01*
X190029107Y-74312286D01*
X190127951Y-74310144D01*
X190201108Y-74306522D01*
X190254124Y-74301064D01*
X190292548Y-74293412D01*
X190321927Y-74283206D01*
X190340176Y-74274300D01*
X190403364Y-74223808D01*
X190458225Y-74150887D01*
X190463158Y-74142008D01*
X190490974Y-74081453D01*
X190504684Y-74022349D01*
X190507371Y-73947208D01*
X190505676Y-73900821D01*
X190498285Y-73812403D01*
X190482826Y-73748087D01*
X190453763Y-73689718D01*
X190430526Y-73654370D01*
X190370065Y-73583096D01*
X190308452Y-73538118D01*
X190295418Y-73532662D01*
X190249660Y-73524608D01*
X190165081Y-73518098D01*
X190045171Y-73513273D01*
X189893420Y-73510273D01*
X189713317Y-73509238D01*
X189197374Y-73509238D01*
X189197374Y-74313571D01*
X187063463Y-74313571D01*
X187062899Y-74066852D01*
X187062266Y-73752181D01*
X187061952Y-73509238D01*
X187061905Y-73473221D01*
X187061916Y-73227764D01*
X187062398Y-73013603D01*
X187063450Y-72828530D01*
X187065171Y-72670337D01*
X187067662Y-72536818D01*
X187071021Y-72425763D01*
X187075349Y-72334967D01*
X187080743Y-72262221D01*
X187087304Y-72205318D01*
X187095131Y-72162050D01*
X187104323Y-72130209D01*
X187114980Y-72107589D01*
X187127202Y-72091981D01*
X187141087Y-72081179D01*
X187156734Y-72072974D01*
X187174245Y-72065159D01*
X187188566Y-72058274D01*
X187203483Y-72052262D01*
X187225208Y-72047052D01*
X187256472Y-72042606D01*
X187300005Y-72038888D01*
X187358538Y-72035861D01*
X187434802Y-72033488D01*
X187531528Y-72031733D01*
X187651447Y-72030557D01*
X187797289Y-72029925D01*
X187971786Y-72029800D01*
X188177667Y-72030145D01*
X196619525Y-71971069D02*
X196797845Y-71977774D01*
X196797845Y-71977774D02*
X196958765Y-71987916D01*
X196958765Y-71987916D02*
X197093100Y-72001370D01*
X197093100Y-72001370D02*
X197166624Y-72012731D01*
X197166624Y-72012731D02*
X197473592Y-72080687D01*
X197473592Y-72080687D02*
X197761081Y-72163113D01*
X197761081Y-72163113D02*
X198019584Y-72257175D01*
X198019584Y-72257175D02*
X198096136Y-72289940D01*
X198096136Y-72289940D02*
X198257485Y-72374812D01*
X198257485Y-72374812D02*
X198430743Y-72488422D01*
X198430743Y-72488422D02*
X198606308Y-72623045D01*
X198606308Y-72623045D02*
X198774580Y-72770959D01*
X198774580Y-72770959D02*
X198925958Y-72924438D01*
X198925958Y-72924438D02*
X199015598Y-73029622D01*
X199015598Y-73029622D02*
X199122770Y-73178462D01*
X199122770Y-73178462D02*
X199207685Y-73324504D01*
X199207685Y-73324504D02*
X199268926Y-73463122D01*
X199268926Y-73463122D02*
X199305076Y-73589687D01*
X199305076Y-73589687D02*
X199314720Y-73699571D01*
X199314720Y-73699571D02*
X199296442Y-73788147D01*
X199296442Y-73788147D02*
X199263086Y-73838283D01*
X199263086Y-73838283D02*
X199211131Y-73890238D01*
X199211131Y-73890238D02*
X198248464Y-73890238D01*
X198248464Y-73890238D02*
X198016866Y-73889773D01*
X198016866Y-73889773D02*
X197809283Y-73888418D01*
X197809283Y-73888418D02*
X197628659Y-73886235D01*
X197628659Y-73886235D02*
X197477943Y-73883284D01*
X197477943Y-73883284D02*
X197360081Y-73879624D01*
X197360081Y-73879624D02*
X197278019Y-73875319D01*
X197278019Y-73875319D02*
X197234704Y-73870426D01*
X197234704Y-73870426D02*
X197230721Y-73869298D01*
X197230721Y-73869298D02*
X197187612Y-73843710D01*
X197187612Y-73843710D02*
X197128969Y-73797382D01*
X197128969Y-73797382D02*
X197071667Y-73744380D01*
X197071667Y-73744380D02*
X196995345Y-73678153D01*
X196995345Y-73678153D02*
X196906334Y-73615225D01*
X196906334Y-73615225D02*
X196844907Y-73580112D01*
X196844907Y-73580112D02*
X196791602Y-73555194D01*
X196791602Y-73555194D02*
X196744791Y-73538279D01*
X196744791Y-73538279D02*
X196694298Y-73527828D01*
X196694298Y-73527828D02*
X196629947Y-73522297D01*
X196629947Y-73522297D02*
X196541565Y-73520145D01*
X196541565Y-73520145D02*
X196446957Y-73519821D01*
X196446957Y-73519821D02*
X196236404Y-73529430D01*
X196236404Y-73529430D02*
X196060116Y-73559258D01*
X196060116Y-73559258D02*
X195914389Y-73610808D01*
X195914389Y-73610808D02*
X195795517Y-73685585D01*
X195795517Y-73685585D02*
X195699795Y-73785090D01*
X195699795Y-73785090D02*
X195663791Y-73837522D01*
X195663791Y-73837522D02*
X195600291Y-73939742D01*
X195600291Y-73939742D02*
X195594006Y-74710492D01*
X195594006Y-74710492D02*
X195592403Y-74935083D01*
X195592403Y-74935083D02*
X195592040Y-75121737D01*
X195592040Y-75121737D02*
X195593593Y-75274845D01*
X195593593Y-75274845D02*
X195597741Y-75398801D01*
X195597741Y-75398801D02*
X195605159Y-75497997D01*
X195605159Y-75497997D02*
X195616526Y-75576825D01*
X195616526Y-75576825D02*
X195632517Y-75639677D01*
X195632517Y-75639677D02*
X195653810Y-75690945D01*
X195653810Y-75690945D02*
X195681082Y-75735023D01*
X195681082Y-75735023D02*
X195715010Y-75776301D01*
X195715010Y-75776301D02*
X195756270Y-75819173D01*
X195756270Y-75819173D02*
X195766441Y-75829298D01*
X195766441Y-75829298D02*
X195893738Y-75926961D01*
X195893738Y-75926961D02*
X196050335Y-75999364D01*
X196050335Y-75999364D02*
X196230850Y-76045515D01*
X196230850Y-76045515D02*
X196429899Y-76064426D01*
X196429899Y-76064426D02*
X196642099Y-76055107D01*
X196642099Y-76055107D02*
X196827957Y-76024433D01*
X196827957Y-76024433D02*
X196984653Y-75973414D01*
X196984653Y-75973414D02*
X197121950Y-75896136D01*
X197121950Y-75896136D02*
X197234029Y-75797530D01*
X197234029Y-75797530D02*
X197315067Y-75682527D01*
X197315067Y-75682527D02*
X197354557Y-75578279D01*
X197354557Y-75578279D02*
X197368514Y-75520071D01*
X197368514Y-75520071D02*
X196813141Y-75520071D01*
X196813141Y-75520071D02*
X196669207Y-75376137D01*
X196669207Y-75376137D02*
X196669207Y-74351671D01*
X196669207Y-74351671D02*
X196741174Y-74279704D01*
X196741174Y-74279704D02*
X196813141Y-74207738D01*
X196813141Y-74207738D02*
X199234607Y-74207738D01*
X199234607Y-74207738D02*
X199308597Y-74281727D01*
X199308597Y-74281727D02*
X199382586Y-74355716D01*
X199382586Y-74355716D02*
X199372663Y-75017269D01*
X199372663Y-75017269D02*
X199369027Y-75226160D01*
X199369027Y-75226160D02*
X199364518Y-75398904D01*
X199364518Y-75398904D02*
X199358432Y-75541685D01*
X199358432Y-75541685D02*
X199350065Y-75660686D01*
X199350065Y-75660686D02*
X199338712Y-75762094D01*
X199338712Y-75762094D02*
X199323669Y-75852094D01*
X199323669Y-75852094D02*
X199304232Y-75936869D01*
X199304232Y-75936869D02*
X199279696Y-76022604D01*
X199279696Y-76022604D02*
X199249356Y-76115485D01*
X199249356Y-76115485D02*
X199246687Y-76123321D01*
X199246687Y-76123321D02*
X199138685Y-76375597D01*
X199138685Y-76375597D02*
X198994677Y-76606787D01*
X198994677Y-76606787D02*
X198815799Y-76816119D01*
X198815799Y-76816119D02*
X198603187Y-77002822D01*
X198603187Y-77002822D02*
X198357977Y-77166124D01*
X198357977Y-77166124D02*
X198081303Y-77305252D01*
X198081303Y-77305252D02*
X197774303Y-77419435D01*
X197774303Y-77419435D02*
X197438111Y-77507901D01*
X197438111Y-77507901D02*
X197129307Y-77562433D01*
X197129307Y-77562433D02*
X196984320Y-77578579D01*
X196984320Y-77578579D02*
X196810825Y-77591244D01*
X196810825Y-77591244D02*
X196621163Y-77600090D01*
X196621163Y-77600090D02*
X196427677Y-77604779D01*
X196427677Y-77604779D02*
X196242709Y-77604972D01*
X196242709Y-77604972D02*
X196078599Y-77600330D01*
X196078599Y-77600330D02*
X195981291Y-77593895D01*
X195981291Y-77593895D02*
X195596188Y-77545107D01*
X195596188Y-77545107D02*
X195240400Y-77470210D01*
X195240400Y-77470210D02*
X194914779Y-77369666D01*
X194914779Y-77369666D02*
X194620180Y-77243936D01*
X194620180Y-77243936D02*
X194357453Y-77093480D01*
X194357453Y-77093480D02*
X194127452Y-76918758D01*
X194127452Y-76918758D02*
X193931029Y-76720231D01*
X193931029Y-76720231D02*
X193769038Y-76498359D01*
X193769038Y-76498359D02*
X193689690Y-76356154D01*
X193689690Y-76356154D02*
X193619197Y-76192237D01*
X193619197Y-76192237D02*
X193557021Y-76003508D01*
X193557021Y-76003508D02*
X193508523Y-75807388D01*
X193508523Y-75807388D02*
X193490774Y-75710070D01*
X193490774Y-75710070D02*
X193482134Y-75631154D01*
X193482134Y-75631154D02*
X193474976Y-75517651D01*
X193474976Y-75517651D02*
X193469298Y-75376104D01*
X193469298Y-75376104D02*
X193465099Y-75213056D01*
X193465099Y-75213056D02*
X193462377Y-75035049D01*
X193462377Y-75035049D02*
X193461131Y-74848625D01*
X193461131Y-74848625D02*
X193461359Y-74660327D01*
X193461359Y-74660327D02*
X193463059Y-74476698D01*
X193463059Y-74476698D02*
X193466231Y-74304279D01*
X193466231Y-74304279D02*
X193470871Y-74149613D01*
X193470871Y-74149613D02*
X193476979Y-74019243D01*
X193476979Y-74019243D02*
X193484553Y-73919711D01*
X193484553Y-73919711D02*
X193491224Y-73869071D01*
X193491224Y-73869071D02*
X193565257Y-73568067D01*
X193565257Y-73568067D02*
X193673603Y-73291637D01*
X193673603Y-73291637D02*
X193815888Y-73040086D01*
X193815888Y-73040086D02*
X193991736Y-72813719D01*
X193991736Y-72813719D02*
X194200775Y-72612843D01*
X194200775Y-72612843D02*
X194442630Y-72437762D01*
X194442630Y-72437762D02*
X194716927Y-72288782D01*
X194716927Y-72288782D02*
X195023291Y-72166208D01*
X195023291Y-72166208D02*
X195361349Y-72070346D01*
X195361349Y-72070346D02*
X195730726Y-72001502D01*
X195730726Y-72001502D02*
X195788358Y-71993584D01*
X195788358Y-71993584D02*
X195915921Y-71981184D01*
X195915921Y-71981184D02*
X196072003Y-71972860D01*
X196072003Y-71972860D02*
X196247420Y-71968485D01*
X196247420Y-71968485D02*
X196432989Y-71967930D01*
X196432989Y-71967930D02*
X196619525Y-71971069D01*
X196619525Y-71971069D02*
X196619525Y-71971069D01*
G36*
X196619525Y-71971069D02*
G01*
X196797845Y-71977774D01*
X196958765Y-71987916D01*
X197093100Y-72001370D01*
X197166624Y-72012731D01*
X197473592Y-72080687D01*
X197761081Y-72163113D01*
X198019584Y-72257175D01*
X198096136Y-72289940D01*
X198257485Y-72374812D01*
X198430743Y-72488422D01*
X198606308Y-72623045D01*
X198774580Y-72770959D01*
X198925958Y-72924438D01*
X199015598Y-73029622D01*
X199122770Y-73178462D01*
X199207685Y-73324504D01*
X199268926Y-73463122D01*
X199305076Y-73589687D01*
X199314720Y-73699571D01*
X199296442Y-73788147D01*
X199263086Y-73838283D01*
X199211131Y-73890238D01*
X198248464Y-73890238D01*
X198016866Y-73889773D01*
X197809283Y-73888418D01*
X197628659Y-73886235D01*
X197477943Y-73883284D01*
X197360081Y-73879624D01*
X197278019Y-73875319D01*
X197234704Y-73870426D01*
X197230721Y-73869298D01*
X197187612Y-73843710D01*
X197128969Y-73797382D01*
X197071667Y-73744380D01*
X196995345Y-73678153D01*
X196906334Y-73615225D01*
X196844907Y-73580112D01*
X196791602Y-73555194D01*
X196744791Y-73538279D01*
X196694298Y-73527828D01*
X196629947Y-73522297D01*
X196541565Y-73520145D01*
X196446957Y-73519821D01*
X196236404Y-73529430D01*
X196060116Y-73559258D01*
X195914389Y-73610808D01*
X195795517Y-73685585D01*
X195699795Y-73785090D01*
X195663791Y-73837522D01*
X195600291Y-73939742D01*
X195594006Y-74710492D01*
X195592403Y-74935083D01*
X195592040Y-75121737D01*
X195593593Y-75274845D01*
X195597741Y-75398801D01*
X195605159Y-75497997D01*
X195616526Y-75576825D01*
X195632517Y-75639677D01*
X195653810Y-75690945D01*
X195681082Y-75735023D01*
X195715010Y-75776301D01*
X195756270Y-75819173D01*
X195766441Y-75829298D01*
X195893738Y-75926961D01*
X196050335Y-75999364D01*
X196230850Y-76045515D01*
X196429899Y-76064426D01*
X196642099Y-76055107D01*
X196827957Y-76024433D01*
X196984653Y-75973414D01*
X197121950Y-75896136D01*
X197234029Y-75797530D01*
X197315067Y-75682527D01*
X197354557Y-75578279D01*
X197368514Y-75520071D01*
X196813141Y-75520071D01*
X196669207Y-75376137D01*
X196669207Y-74351671D01*
X196741174Y-74279704D01*
X196813141Y-74207738D01*
X199234607Y-74207738D01*
X199308597Y-74281727D01*
X199382586Y-74355716D01*
X199372663Y-75017269D01*
X199369027Y-75226160D01*
X199364518Y-75398904D01*
X199358432Y-75541685D01*
X199350065Y-75660686D01*
X199338712Y-75762094D01*
X199323669Y-75852094D01*
X199304232Y-75936869D01*
X199279696Y-76022604D01*
X199249356Y-76115485D01*
X199246687Y-76123321D01*
X199138685Y-76375597D01*
X198994677Y-76606787D01*
X198815799Y-76816119D01*
X198603187Y-77002822D01*
X198357977Y-77166124D01*
X198081303Y-77305252D01*
X197774303Y-77419435D01*
X197438111Y-77507901D01*
X197129307Y-77562433D01*
X196984320Y-77578579D01*
X196810825Y-77591244D01*
X196621163Y-77600090D01*
X196427677Y-77604779D01*
X196242709Y-77604972D01*
X196078599Y-77600330D01*
X195981291Y-77593895D01*
X195596188Y-77545107D01*
X195240400Y-77470210D01*
X194914779Y-77369666D01*
X194620180Y-77243936D01*
X194357453Y-77093480D01*
X194127452Y-76918758D01*
X193931029Y-76720231D01*
X193769038Y-76498359D01*
X193689690Y-76356154D01*
X193619197Y-76192237D01*
X193557021Y-76003508D01*
X193508523Y-75807388D01*
X193490774Y-75710070D01*
X193482134Y-75631154D01*
X193474976Y-75517651D01*
X193469298Y-75376104D01*
X193465099Y-75213056D01*
X193462377Y-75035049D01*
X193461131Y-74848625D01*
X193461359Y-74660327D01*
X193463059Y-74476698D01*
X193466231Y-74304279D01*
X193470871Y-74149613D01*
X193476979Y-74019243D01*
X193484553Y-73919711D01*
X193491224Y-73869071D01*
X193565257Y-73568067D01*
X193673603Y-73291637D01*
X193815888Y-73040086D01*
X193991736Y-72813719D01*
X194200775Y-72612843D01*
X194442630Y-72437762D01*
X194716927Y-72288782D01*
X195023291Y-72166208D01*
X195361349Y-72070346D01*
X195730726Y-72001502D01*
X195788358Y-71993584D01*
X195915921Y-71981184D01*
X196072003Y-71972860D01*
X196247420Y-71968485D01*
X196432989Y-71967930D01*
X196619525Y-71971069D01*
G37*
X196619525Y-71971069D02*
X196797845Y-71977774D01*
X196958765Y-71987916D01*
X197093100Y-72001370D01*
X197166624Y-72012731D01*
X197473592Y-72080687D01*
X197761081Y-72163113D01*
X198019584Y-72257175D01*
X198096136Y-72289940D01*
X198257485Y-72374812D01*
X198430743Y-72488422D01*
X198606308Y-72623045D01*
X198774580Y-72770959D01*
X198925958Y-72924438D01*
X199015598Y-73029622D01*
X199122770Y-73178462D01*
X199207685Y-73324504D01*
X199268926Y-73463122D01*
X199305076Y-73589687D01*
X199314720Y-73699571D01*
X199296442Y-73788147D01*
X199263086Y-73838283D01*
X199211131Y-73890238D01*
X198248464Y-73890238D01*
X198016866Y-73889773D01*
X197809283Y-73888418D01*
X197628659Y-73886235D01*
X197477943Y-73883284D01*
X197360081Y-73879624D01*
X197278019Y-73875319D01*
X197234704Y-73870426D01*
X197230721Y-73869298D01*
X197187612Y-73843710D01*
X197128969Y-73797382D01*
X197071667Y-73744380D01*
X196995345Y-73678153D01*
X196906334Y-73615225D01*
X196844907Y-73580112D01*
X196791602Y-73555194D01*
X196744791Y-73538279D01*
X196694298Y-73527828D01*
X196629947Y-73522297D01*
X196541565Y-73520145D01*
X196446957Y-73519821D01*
X196236404Y-73529430D01*
X196060116Y-73559258D01*
X195914389Y-73610808D01*
X195795517Y-73685585D01*
X195699795Y-73785090D01*
X195663791Y-73837522D01*
X195600291Y-73939742D01*
X195594006Y-74710492D01*
X195592403Y-74935083D01*
X195592040Y-75121737D01*
X195593593Y-75274845D01*
X195597741Y-75398801D01*
X195605159Y-75497997D01*
X195616526Y-75576825D01*
X195632517Y-75639677D01*
X195653810Y-75690945D01*
X195681082Y-75735023D01*
X195715010Y-75776301D01*
X195756270Y-75819173D01*
X195766441Y-75829298D01*
X195893738Y-75926961D01*
X196050335Y-75999364D01*
X196230850Y-76045515D01*
X196429899Y-76064426D01*
X196642099Y-76055107D01*
X196827957Y-76024433D01*
X196984653Y-75973414D01*
X197121950Y-75896136D01*
X197234029Y-75797530D01*
X197315067Y-75682527D01*
X197354557Y-75578279D01*
X197368514Y-75520071D01*
X196813141Y-75520071D01*
X196669207Y-75376137D01*
X196669207Y-74351671D01*
X196741174Y-74279704D01*
X196813141Y-74207738D01*
X199234607Y-74207738D01*
X199308597Y-74281727D01*
X199382586Y-74355716D01*
X199372663Y-75017269D01*
X199369027Y-75226160D01*
X199364518Y-75398904D01*
X199358432Y-75541685D01*
X199350065Y-75660686D01*
X199338712Y-75762094D01*
X199323669Y-75852094D01*
X199304232Y-75936869D01*
X199279696Y-76022604D01*
X199249356Y-76115485D01*
X199246687Y-76123321D01*
X199138685Y-76375597D01*
X198994677Y-76606787D01*
X198815799Y-76816119D01*
X198603187Y-77002822D01*
X198357977Y-77166124D01*
X198081303Y-77305252D01*
X197774303Y-77419435D01*
X197438111Y-77507901D01*
X197129307Y-77562433D01*
X196984320Y-77578579D01*
X196810825Y-77591244D01*
X196621163Y-77600090D01*
X196427677Y-77604779D01*
X196242709Y-77604972D01*
X196078599Y-77600330D01*
X195981291Y-77593895D01*
X195596188Y-77545107D01*
X195240400Y-77470210D01*
X194914779Y-77369666D01*
X194620180Y-77243936D01*
X194357453Y-77093480D01*
X194127452Y-76918758D01*
X193931029Y-76720231D01*
X193769038Y-76498359D01*
X193689690Y-76356154D01*
X193619197Y-76192237D01*
X193557021Y-76003508D01*
X193508523Y-75807388D01*
X193490774Y-75710070D01*
X193482134Y-75631154D01*
X193474976Y-75517651D01*
X193469298Y-75376104D01*
X193465099Y-75213056D01*
X193462377Y-75035049D01*
X193461131Y-74848625D01*
X193461359Y-74660327D01*
X193463059Y-74476698D01*
X193466231Y-74304279D01*
X193470871Y-74149613D01*
X193476979Y-74019243D01*
X193484553Y-73919711D01*
X193491224Y-73869071D01*
X193565257Y-73568067D01*
X193673603Y-73291637D01*
X193815888Y-73040086D01*
X193991736Y-72813719D01*
X194200775Y-72612843D01*
X194442630Y-72437762D01*
X194716927Y-72288782D01*
X195023291Y-72166208D01*
X195361349Y-72070346D01*
X195730726Y-72001502D01*
X195788358Y-71993584D01*
X195915921Y-71981184D01*
X196072003Y-71972860D01*
X196247420Y-71968485D01*
X196432989Y-71967930D01*
X196619525Y-71971069D01*
X176526011Y-71969652D02*
X176716113Y-71975154D01*
X176716113Y-71975154D02*
X176872530Y-71982663D01*
X176872530Y-71982663D02*
X177003889Y-71992856D01*
X177003889Y-71992856D02*
X177118818Y-72006412D01*
X177118818Y-72006412D02*
X177225943Y-72024010D01*
X177225943Y-72024010D02*
X177231973Y-72025145D01*
X177231973Y-72025145D02*
X177564169Y-72104052D01*
X177564169Y-72104052D02*
X177874981Y-72210059D01*
X177874981Y-72210059D02*
X178161423Y-72341414D01*
X178161423Y-72341414D02*
X178420508Y-72496369D01*
X178420508Y-72496369D02*
X178649247Y-72673175D01*
X178649247Y-72673175D02*
X178844655Y-72870081D01*
X178844655Y-72870081D02*
X178980397Y-73049047D01*
X178980397Y-73049047D02*
X179101381Y-73267221D01*
X179101381Y-73267221D02*
X179196190Y-73514755D01*
X179196190Y-73514755D02*
X179263102Y-73786450D01*
X179263102Y-73786450D02*
X179292848Y-73992286D01*
X179292848Y-73992286D02*
X179300638Y-74094834D01*
X179300638Y-74094834D02*
X179306202Y-74227437D01*
X179306202Y-74227437D02*
X179309652Y-74383689D01*
X179309652Y-74383689D02*
X179311101Y-74557180D01*
X179311101Y-74557180D02*
X179310662Y-74741506D01*
X179310662Y-74741506D02*
X179308446Y-74930258D01*
X179308446Y-74930258D02*
X179304568Y-75117030D01*
X179304568Y-75117030D02*
X179299139Y-75295413D01*
X179299139Y-75295413D02*
X179292271Y-75459002D01*
X179292271Y-75459002D02*
X179284078Y-75601389D01*
X179284078Y-75601389D02*
X179274672Y-75716167D01*
X179274672Y-75716167D02*
X179264166Y-75796929D01*
X179264166Y-75796929D02*
X179260856Y-75813390D01*
X179260856Y-75813390D02*
X179183581Y-76087413D01*
X179183581Y-76087413D02*
X179082849Y-76331223D01*
X179082849Y-76331223D02*
X178954913Y-76552073D01*
X178954913Y-76552073D02*
X178796027Y-76757215D01*
X178796027Y-76757215D02*
X178743340Y-76815107D01*
X178743340Y-76815107D02*
X178591231Y-76965928D01*
X178591231Y-76965928D02*
X178442805Y-77088375D01*
X178442805Y-77088375D02*
X178284452Y-77192712D01*
X178284452Y-77192712D02*
X178137791Y-77271886D01*
X178137791Y-77271886D02*
X177881072Y-77381143D01*
X177881072Y-77381143D02*
X177591782Y-77469948D01*
X177591782Y-77469948D02*
X177274800Y-77537591D01*
X177274800Y-77537591D02*
X176935003Y-77583364D01*
X176935003Y-77583364D02*
X176577268Y-77606556D01*
X176577268Y-77606556D02*
X176206474Y-77606457D01*
X176206474Y-77606457D02*
X175938435Y-77591897D01*
X175938435Y-77591897D02*
X175652127Y-77560141D01*
X175652127Y-77560141D02*
X175367702Y-77510047D01*
X175367702Y-77510047D02*
X175095911Y-77444101D01*
X175095911Y-77444101D02*
X174847506Y-77364787D01*
X174847506Y-77364787D02*
X174699972Y-77305609D01*
X174699972Y-77305609D02*
X174570740Y-77238846D01*
X174570740Y-77238846D02*
X174427804Y-77149015D01*
X174427804Y-77149015D02*
X174284621Y-77045523D01*
X174284621Y-77045523D02*
X174154647Y-76937774D01*
X174154647Y-76937774D02*
X174099437Y-76885857D01*
X174099437Y-76885857D02*
X173906579Y-76669335D01*
X173906579Y-76669335D02*
X173751168Y-76437515D01*
X173751168Y-76437515D02*
X173631308Y-76186604D01*
X173631308Y-76186604D02*
X173545103Y-75912808D01*
X173545103Y-75912808D02*
X173501280Y-75689404D01*
X173501280Y-75689404D02*
X173493006Y-75610885D01*
X173493006Y-75610885D02*
X173485960Y-75497016D01*
X173485960Y-75497016D02*
X173480176Y-75354716D01*
X173480176Y-75354716D02*
X173475688Y-75190904D01*
X173475688Y-75190904D02*
X173474927Y-75147852D01*
X173474927Y-75147852D02*
X175610616Y-75147852D01*
X175610616Y-75147852D02*
X175611588Y-75296768D01*
X175611588Y-75296768D02*
X175614582Y-75416659D01*
X175614582Y-75416659D02*
X175620107Y-75511962D01*
X175620107Y-75511962D02*
X175628672Y-75587112D01*
X175628672Y-75587112D02*
X175640785Y-75646545D01*
X175640785Y-75646545D02*
X175656956Y-75694695D01*
X175656956Y-75694695D02*
X175677693Y-75736000D01*
X175677693Y-75736000D02*
X175703506Y-75774893D01*
X175703506Y-75774893D02*
X175734904Y-75815810D01*
X175734904Y-75815810D02*
X175735655Y-75816760D01*
X175735655Y-75816760D02*
X175824769Y-75899793D01*
X175824769Y-75899793D02*
X175946340Y-75969941D01*
X175946340Y-75969941D02*
X176091547Y-76023715D01*
X176091547Y-76023715D02*
X176251570Y-76057628D01*
X176251570Y-76057628D02*
X176370374Y-76067770D01*
X176370374Y-76067770D02*
X176431692Y-76065532D01*
X176431692Y-76065532D02*
X176514156Y-76057356D01*
X176514156Y-76057356D02*
X176580217Y-76048057D01*
X176580217Y-76048057D02*
X176753260Y-76002984D01*
X176753260Y-76002984D02*
X176901658Y-75929099D01*
X176901658Y-75929099D02*
X177020255Y-75829006D01*
X177020255Y-75829006D02*
X177025875Y-75822720D01*
X177025875Y-75822720D02*
X177062733Y-75779116D01*
X177062733Y-75779116D02*
X177092956Y-75737020D01*
X177092956Y-75737020D02*
X177117199Y-75691840D01*
X177117199Y-75691840D02*
X177136118Y-75638981D01*
X177136118Y-75638981D02*
X177150368Y-75573851D01*
X177150368Y-75573851D02*
X177160605Y-75491855D01*
X177160605Y-75491855D02*
X177167485Y-75388399D01*
X177167485Y-75388399D02*
X177171663Y-75258891D01*
X177171663Y-75258891D02*
X177173795Y-75098736D01*
X177173795Y-75098736D02*
X177174536Y-74903340D01*
X177174536Y-74903340D02*
X177174589Y-74780687D01*
X177174589Y-74780687D02*
X177173939Y-74590767D01*
X177173939Y-74590767D02*
X177172136Y-74417662D01*
X177172136Y-74417662D02*
X177169301Y-74266038D01*
X177169301Y-74266038D02*
X177165560Y-74140561D01*
X177165560Y-74140561D02*
X177161035Y-74045897D01*
X177161035Y-74045897D02*
X177155849Y-73986711D01*
X177155849Y-73986711D02*
X177153226Y-73972506D01*
X177153226Y-73972506D02*
X177096243Y-73843152D01*
X177096243Y-73843152D02*
X177004221Y-73727371D01*
X177004221Y-73727371D02*
X176883777Y-73631189D01*
X176883777Y-73631189D02*
X176741528Y-73560631D01*
X176741528Y-73560631D02*
X176679020Y-73540665D01*
X176679020Y-73540665D02*
X176539030Y-73515365D01*
X176539030Y-73515365D02*
X176383666Y-73508006D01*
X176383666Y-73508006D02*
X176227095Y-73517792D01*
X176227095Y-73517792D02*
X176083489Y-73543927D01*
X176083489Y-73543927D02*
X175978791Y-73579957D01*
X175978791Y-73579957D02*
X175831962Y-73666215D01*
X175831962Y-73666215D02*
X175720481Y-73773900D01*
X175720481Y-73773900D02*
X175664727Y-73858488D01*
X175664727Y-73858488D02*
X175652981Y-73881606D01*
X175652981Y-73881606D02*
X175643389Y-73906136D01*
X175643389Y-73906136D02*
X175635694Y-73936484D01*
X175635694Y-73936484D02*
X175629636Y-73977057D01*
X175629636Y-73977057D02*
X175624957Y-74032259D01*
X175624957Y-74032259D02*
X175621398Y-74106499D01*
X175621398Y-74106499D02*
X175618702Y-74204180D01*
X175618702Y-74204180D02*
X175616609Y-74329710D01*
X175616609Y-74329710D02*
X175614861Y-74487494D01*
X175614861Y-74487494D02*
X175613200Y-74681940D01*
X175613200Y-74681940D02*
X175612702Y-74745207D01*
X175612702Y-74745207D02*
X175611157Y-74965477D01*
X175611157Y-74965477D02*
X175610616Y-75147852D01*
X175610616Y-75147852D02*
X173474927Y-75147852D01*
X173474927Y-75147852D02*
X173472533Y-75012497D01*
X173472533Y-75012497D02*
X173470743Y-74826414D01*
X173470743Y-74826414D02*
X173470353Y-74639573D01*
X173470353Y-74639573D02*
X173471399Y-74458891D01*
X173471399Y-74458891D02*
X173473914Y-74291287D01*
X173473914Y-74291287D02*
X173477934Y-74143679D01*
X173477934Y-74143679D02*
X173483493Y-74022985D01*
X173483493Y-74022985D02*
X173490625Y-73936124D01*
X173490625Y-73936124D02*
X173492445Y-73921988D01*
X173492445Y-73921988D02*
X173553855Y-73618891D01*
X173553855Y-73618891D02*
X173648424Y-73341544D01*
X173648424Y-73341544D02*
X173776483Y-73089564D01*
X173776483Y-73089564D02*
X173938361Y-72862569D01*
X173938361Y-72862569D02*
X174134389Y-72660178D01*
X174134389Y-72660178D02*
X174364898Y-72482007D01*
X174364898Y-72482007D02*
X174630219Y-72327675D01*
X174630219Y-72327675D02*
X174930681Y-72196798D01*
X174930681Y-72196798D02*
X175008462Y-72168695D01*
X175008462Y-72168695D02*
X175227549Y-72099194D01*
X175227549Y-72099194D02*
X175443283Y-72045594D01*
X175443283Y-72045594D02*
X175664097Y-72006790D01*
X175664097Y-72006790D02*
X175898426Y-71981676D01*
X175898426Y-71981676D02*
X176154704Y-71969145D01*
X176154704Y-71969145D02*
X176441364Y-71968091D01*
X176441364Y-71968091D02*
X176526011Y-71969652D01*
X176526011Y-71969652D02*
X176526011Y-71969652D01*
G36*
X173470743Y-74826414D02*
G01*
X173470353Y-74639573D01*
X173471399Y-74458891D01*
X173473914Y-74291287D01*
X173477934Y-74143679D01*
X173483493Y-74022985D01*
X173490625Y-73936124D01*
X173492445Y-73921988D01*
X173553855Y-73618891D01*
X173648424Y-73341544D01*
X173776483Y-73089564D01*
X173938361Y-72862569D01*
X174134389Y-72660178D01*
X174364898Y-72482007D01*
X174630219Y-72327675D01*
X174930681Y-72196798D01*
X175008462Y-72168695D01*
X175227549Y-72099194D01*
X175443283Y-72045594D01*
X175664097Y-72006790D01*
X175898426Y-71981676D01*
X176154704Y-71969145D01*
X176441364Y-71968091D01*
X176526011Y-71969652D01*
X176716113Y-71975154D01*
X176872530Y-71982663D01*
X177003889Y-71992856D01*
X177118818Y-72006412D01*
X177225943Y-72024010D01*
X177231973Y-72025145D01*
X177564169Y-72104052D01*
X177874981Y-72210059D01*
X178161423Y-72341414D01*
X178420508Y-72496369D01*
X178649247Y-72673175D01*
X178844655Y-72870081D01*
X178980397Y-73049047D01*
X179101381Y-73267221D01*
X179196190Y-73514755D01*
X179263102Y-73786450D01*
X179292848Y-73992286D01*
X179300638Y-74094834D01*
X179306202Y-74227437D01*
X179309652Y-74383689D01*
X179311101Y-74557180D01*
X179310662Y-74741506D01*
X179308446Y-74930258D01*
X179304568Y-75117030D01*
X179299139Y-75295413D01*
X179292271Y-75459002D01*
X179284078Y-75601389D01*
X179274672Y-75716167D01*
X179264166Y-75796929D01*
X179260856Y-75813390D01*
X179183581Y-76087413D01*
X179082849Y-76331223D01*
X178954913Y-76552073D01*
X178796027Y-76757215D01*
X178743340Y-76815107D01*
X178591231Y-76965928D01*
X178442805Y-77088375D01*
X178284452Y-77192712D01*
X178137791Y-77271886D01*
X177881072Y-77381143D01*
X177591782Y-77469948D01*
X177274800Y-77537591D01*
X176935003Y-77583364D01*
X176577268Y-77606556D01*
X176206474Y-77606457D01*
X175938435Y-77591897D01*
X175652127Y-77560141D01*
X175367702Y-77510047D01*
X175095911Y-77444101D01*
X174847506Y-77364787D01*
X174699972Y-77305609D01*
X174570740Y-77238846D01*
X174427804Y-77149015D01*
X174284621Y-77045523D01*
X174154647Y-76937774D01*
X174099437Y-76885857D01*
X173906579Y-76669335D01*
X173751168Y-76437515D01*
X173631308Y-76186604D01*
X173545103Y-75912808D01*
X173501280Y-75689404D01*
X173493006Y-75610885D01*
X173485960Y-75497016D01*
X173480176Y-75354716D01*
X173475688Y-75190904D01*
X173474927Y-75147852D01*
X175610616Y-75147852D01*
X175611588Y-75296768D01*
X175614582Y-75416659D01*
X175620107Y-75511962D01*
X175628672Y-75587112D01*
X175640785Y-75646545D01*
X175656956Y-75694695D01*
X175677693Y-75736000D01*
X175703506Y-75774893D01*
X175734904Y-75815810D01*
X175735655Y-75816760D01*
X175824769Y-75899793D01*
X175946340Y-75969941D01*
X176091547Y-76023715D01*
X176251570Y-76057628D01*
X176370374Y-76067770D01*
X176431692Y-76065532D01*
X176514156Y-76057356D01*
X176580217Y-76048057D01*
X176753260Y-76002984D01*
X176901658Y-75929099D01*
X177020255Y-75829006D01*
X177025875Y-75822720D01*
X177062733Y-75779116D01*
X177092956Y-75737020D01*
X177117199Y-75691840D01*
X177136118Y-75638981D01*
X177150368Y-75573851D01*
X177160605Y-75491855D01*
X177167485Y-75388399D01*
X177171663Y-75258891D01*
X177173795Y-75098736D01*
X177174536Y-74903340D01*
X177174589Y-74780687D01*
X177173939Y-74590767D01*
X177172136Y-74417662D01*
X177169301Y-74266038D01*
X177165560Y-74140561D01*
X177161035Y-74045897D01*
X177155849Y-73986711D01*
X177153226Y-73972506D01*
X177096243Y-73843152D01*
X177004221Y-73727371D01*
X176883777Y-73631189D01*
X176741528Y-73560631D01*
X176679020Y-73540665D01*
X176539030Y-73515365D01*
X176383666Y-73508006D01*
X176227095Y-73517792D01*
X176083489Y-73543927D01*
X175978791Y-73579957D01*
X175831962Y-73666215D01*
X175720481Y-73773900D01*
X175664727Y-73858488D01*
X175652981Y-73881606D01*
X175643389Y-73906136D01*
X175635694Y-73936484D01*
X175629636Y-73977057D01*
X175624957Y-74032259D01*
X175621398Y-74106499D01*
X175618702Y-74204180D01*
X175616609Y-74329710D01*
X175614861Y-74487494D01*
X175613200Y-74681940D01*
X175612702Y-74745207D01*
X175611157Y-74965477D01*
X175610616Y-75147852D01*
X173474927Y-75147852D01*
X173472533Y-75012497D01*
X173470743Y-74826414D01*
G37*
X173470743Y-74826414D02*
X173470353Y-74639573D01*
X173471399Y-74458891D01*
X173473914Y-74291287D01*
X173477934Y-74143679D01*
X173483493Y-74022985D01*
X173490625Y-73936124D01*
X173492445Y-73921988D01*
X173553855Y-73618891D01*
X173648424Y-73341544D01*
X173776483Y-73089564D01*
X173938361Y-72862569D01*
X174134389Y-72660178D01*
X174364898Y-72482007D01*
X174630219Y-72327675D01*
X174930681Y-72196798D01*
X175008462Y-72168695D01*
X175227549Y-72099194D01*
X175443283Y-72045594D01*
X175664097Y-72006790D01*
X175898426Y-71981676D01*
X176154704Y-71969145D01*
X176441364Y-71968091D01*
X176526011Y-71969652D01*
X176716113Y-71975154D01*
X176872530Y-71982663D01*
X177003889Y-71992856D01*
X177118818Y-72006412D01*
X177225943Y-72024010D01*
X177231973Y-72025145D01*
X177564169Y-72104052D01*
X177874981Y-72210059D01*
X178161423Y-72341414D01*
X178420508Y-72496369D01*
X178649247Y-72673175D01*
X178844655Y-72870081D01*
X178980397Y-73049047D01*
X179101381Y-73267221D01*
X179196190Y-73514755D01*
X179263102Y-73786450D01*
X179292848Y-73992286D01*
X179300638Y-74094834D01*
X179306202Y-74227437D01*
X179309652Y-74383689D01*
X179311101Y-74557180D01*
X179310662Y-74741506D01*
X179308446Y-74930258D01*
X179304568Y-75117030D01*
X179299139Y-75295413D01*
X179292271Y-75459002D01*
X179284078Y-75601389D01*
X179274672Y-75716167D01*
X179264166Y-75796929D01*
X179260856Y-75813390D01*
X179183581Y-76087413D01*
X179082849Y-76331223D01*
X178954913Y-76552073D01*
X178796027Y-76757215D01*
X178743340Y-76815107D01*
X178591231Y-76965928D01*
X178442805Y-77088375D01*
X178284452Y-77192712D01*
X178137791Y-77271886D01*
X177881072Y-77381143D01*
X177591782Y-77469948D01*
X177274800Y-77537591D01*
X176935003Y-77583364D01*
X176577268Y-77606556D01*
X176206474Y-77606457D01*
X175938435Y-77591897D01*
X175652127Y-77560141D01*
X175367702Y-77510047D01*
X175095911Y-77444101D01*
X174847506Y-77364787D01*
X174699972Y-77305609D01*
X174570740Y-77238846D01*
X174427804Y-77149015D01*
X174284621Y-77045523D01*
X174154647Y-76937774D01*
X174099437Y-76885857D01*
X173906579Y-76669335D01*
X173751168Y-76437515D01*
X173631308Y-76186604D01*
X173545103Y-75912808D01*
X173501280Y-75689404D01*
X173493006Y-75610885D01*
X173485960Y-75497016D01*
X173480176Y-75354716D01*
X173475688Y-75190904D01*
X173474927Y-75147852D01*
X175610616Y-75147852D01*
X175611588Y-75296768D01*
X175614582Y-75416659D01*
X175620107Y-75511962D01*
X175628672Y-75587112D01*
X175640785Y-75646545D01*
X175656956Y-75694695D01*
X175677693Y-75736000D01*
X175703506Y-75774893D01*
X175734904Y-75815810D01*
X175735655Y-75816760D01*
X175824769Y-75899793D01*
X175946340Y-75969941D01*
X176091547Y-76023715D01*
X176251570Y-76057628D01*
X176370374Y-76067770D01*
X176431692Y-76065532D01*
X176514156Y-76057356D01*
X176580217Y-76048057D01*
X176753260Y-76002984D01*
X176901658Y-75929099D01*
X177020255Y-75829006D01*
X177025875Y-75822720D01*
X177062733Y-75779116D01*
X177092956Y-75737020D01*
X177117199Y-75691840D01*
X177136118Y-75638981D01*
X177150368Y-75573851D01*
X177160605Y-75491855D01*
X177167485Y-75388399D01*
X177171663Y-75258891D01*
X177173795Y-75098736D01*
X177174536Y-74903340D01*
X177174589Y-74780687D01*
X177173939Y-74590767D01*
X177172136Y-74417662D01*
X177169301Y-74266038D01*
X177165560Y-74140561D01*
X177161035Y-74045897D01*
X177155849Y-73986711D01*
X177153226Y-73972506D01*
X177096243Y-73843152D01*
X177004221Y-73727371D01*
X176883777Y-73631189D01*
X176741528Y-73560631D01*
X176679020Y-73540665D01*
X176539030Y-73515365D01*
X176383666Y-73508006D01*
X176227095Y-73517792D01*
X176083489Y-73543927D01*
X175978791Y-73579957D01*
X175831962Y-73666215D01*
X175720481Y-73773900D01*
X175664727Y-73858488D01*
X175652981Y-73881606D01*
X175643389Y-73906136D01*
X175635694Y-73936484D01*
X175629636Y-73977057D01*
X175624957Y-74032259D01*
X175621398Y-74106499D01*
X175618702Y-74204180D01*
X175616609Y-74329710D01*
X175614861Y-74487494D01*
X175613200Y-74681940D01*
X175612702Y-74745207D01*
X175611157Y-74965477D01*
X175610616Y-75147852D01*
X173474927Y-75147852D01*
X173472533Y-75012497D01*
X173470743Y-74826414D01*
%TD*%
D11*
%TO.C,R21*%
X203760000Y-108220000D03*
D12*
X203760000Y-98060000D03*
%TD*%
D11*
%TO.C,R13*%
X138500000Y-83920000D03*
D12*
X138500000Y-94080000D03*
%TD*%
D13*
%TO.C,REF\u002A\u002A*%
X86500000Y-113920000D03*
%TD*%
D14*
%TO.C,D3*%
X173280000Y-84300000D03*
D15*
X171121000Y-84300000D03*
X168962000Y-84300000D03*
X166803000Y-84300000D03*
%TD*%
D11*
%TO.C,R25*%
X217730000Y-100600000D03*
D12*
X217730000Y-90440000D03*
%TD*%
D11*
%TO.C,R22*%
X207570000Y-100600000D03*
D12*
X207570000Y-90440000D03*
%TD*%
D14*
%TO.C,D6*%
X203760000Y-84300000D03*
D15*
X201601000Y-84300000D03*
X199442000Y-84300000D03*
X197283000Y-84300000D03*
%TD*%
D14*
%TO.C,D7*%
X213920000Y-84300000D03*
D15*
X211761000Y-84300000D03*
X209602000Y-84300000D03*
X207443000Y-84300000D03*
%TD*%
D11*
%TO.C,R6*%
X163120000Y-108220000D03*
D12*
X163120000Y-98060000D03*
%TD*%
D11*
%TO.C,R1*%
X146610000Y-90440000D03*
D12*
X146610000Y-100600000D03*
%TD*%
D11*
%TO.C,R23*%
X210745000Y-104410000D03*
D12*
X210745000Y-94250000D03*
%TD*%
D11*
%TO.C,R20*%
X200585000Y-104410000D03*
D12*
X200585000Y-94250000D03*
%TD*%
D16*
%TO.C,Q1*%
X134700000Y-99690000D03*
D17*
X137240000Y-99690000D03*
X139780000Y-99690000D03*
%TD*%
D11*
%TO.C,R12*%
X180265000Y-104410000D03*
D12*
X180265000Y-94250000D03*
%TD*%
D11*
%TO.C,R17*%
X193600000Y-108220000D03*
D12*
X193600000Y-98060000D03*
%TD*%
D13*
%TO.C,REF\u002A\u002A*%
X117650000Y-93870000D03*
%TD*%
D16*
%TO.C,Q2*%
X134800000Y-106020000D03*
D17*
X137340000Y-106020000D03*
X139880000Y-106020000D03*
%TD*%
D11*
%TO.C,R24*%
X213920000Y-108220000D03*
D12*
X213920000Y-98060000D03*
%TD*%
D18*
%TO.C,S1*%
X104500000Y-112920000D03*
X106500000Y-112920000D03*
X108500000Y-112920000D03*
X104500000Y-114920000D03*
X106500000Y-114920000D03*
X108500000Y-114920000D03*
D15*
X101700000Y-113920000D03*
X111300000Y-113920000D03*
%TD*%
D11*
%TO.C,R19*%
X197410000Y-100600000D03*
D12*
X197410000Y-90440000D03*
%TD*%
D11*
%TO.C,R16*%
X190425000Y-104410000D03*
D12*
X190425000Y-94250000D03*
%TD*%
D13*
%TO.C,REF\u002A\u002A*%
X96350000Y-93870000D03*
%TD*%
D11*
%TO.C,R10*%
X173280000Y-108220000D03*
D12*
X173280000Y-98060000D03*
%TD*%
D19*
%TO.C,A1*%
X121210000Y-85360000D03*
D12*
X118670000Y-85360000D03*
X116130000Y-85360000D03*
X113590000Y-85360000D03*
X111050000Y-85360000D03*
X108510000Y-85360000D03*
X105970000Y-85360000D03*
X103430000Y-85360000D03*
X100890000Y-85360000D03*
X98350000Y-85360000D03*
X95810000Y-85360000D03*
X93270000Y-85360000D03*
X90730000Y-85360000D03*
X88190000Y-85360000D03*
X85650000Y-85360000D03*
X85650000Y-100600000D03*
X88190000Y-100600000D03*
X90730000Y-100600000D03*
X93270000Y-100600000D03*
X95810000Y-100600000D03*
X98350000Y-100600000D03*
X100890000Y-100600000D03*
X103430000Y-100600000D03*
X105970000Y-100600000D03*
X108510000Y-100600000D03*
X111050000Y-100600000D03*
X113590000Y-100600000D03*
X116130000Y-100600000D03*
X118670000Y-100600000D03*
X121210000Y-100600000D03*
%TD*%
D11*
%TO.C,R4*%
X156770000Y-100600000D03*
D12*
X156770000Y-90440000D03*
%TD*%
D11*
%TO.C,R18*%
X142000000Y-84090000D03*
D12*
X142000000Y-94250000D03*
%TD*%
D14*
%TO.C,D2*%
X163120000Y-84300000D03*
D15*
X160961000Y-84300000D03*
X158802000Y-84300000D03*
X156643000Y-84300000D03*
%TD*%
D11*
%TO.C,R3*%
X152960000Y-108220000D03*
D12*
X152960000Y-98060000D03*
%TD*%
D13*
%TO.C,REF\u002A\u002A*%
X127400000Y-113920000D03*
%TD*%
D14*
%TO.C,D5*%
X193600000Y-84300000D03*
D15*
X191441000Y-84300000D03*
X189282000Y-84300000D03*
X187123000Y-84300000D03*
%TD*%
D13*
%TO.C,REF\u002A\u002A*%
X222900000Y-114316000D03*
%TD*%
D14*
%TO.C,D1*%
X152960000Y-84300000D03*
D15*
X150801000Y-84300000D03*
X148642000Y-84300000D03*
X146483000Y-84300000D03*
%TD*%
D14*
%TO.C,D8*%
X224080000Y-84300000D03*
D15*
X221921000Y-84300000D03*
X219762000Y-84300000D03*
X217603000Y-84300000D03*
%TD*%
D11*
%TO.C,R26*%
X220905000Y-104410000D03*
D12*
X220905000Y-94250000D03*
%TD*%
D11*
%TO.C,R8*%
X135000000Y-83920000D03*
D12*
X135000000Y-94080000D03*
%TD*%
D11*
%TO.C,R11*%
X177090000Y-100600000D03*
D12*
X177090000Y-90440000D03*
%TD*%
D11*
%TO.C,R5*%
X159945000Y-104410000D03*
D12*
X159945000Y-94250000D03*
%TD*%
D13*
%TO.C,REF\u002A\u002A*%
X127400000Y-76020000D03*
%TD*%
D11*
%TO.C,R14*%
X183440000Y-108220000D03*
D12*
X183440000Y-98060000D03*
%TD*%
D11*
%TO.C,R2*%
X149785000Y-94250000D03*
D12*
X149785000Y-104410000D03*
%TD*%
D20*
%TO.C,J1*%
X116000000Y-114920000D03*
D21*
X116000000Y-112380000D03*
%TD*%
D11*
%TO.C,R7*%
X166930000Y-100600000D03*
D12*
X166930000Y-90440000D03*
%TD*%
D16*
%TO.C,Q3*%
X134800000Y-112320000D03*
D17*
X137340000Y-112320000D03*
X139880000Y-112320000D03*
%TD*%
D11*
%TO.C,R15*%
X187250000Y-100600000D03*
D12*
X187250000Y-90440000D03*
%TD*%
D11*
%TO.C,R9*%
X170105000Y-104410000D03*
D12*
X170105000Y-94250000D03*
%TD*%
D13*
%TO.C,REF\u002A\u002A*%
X222800000Y-73620000D03*
%TD*%
%TO.C,REF\u002A\u002A*%
X86500000Y-76165028D03*
%TD*%
D11*
%TO.C,R27*%
X224080000Y-108220000D03*
D12*
X224080000Y-98060000D03*
%TD*%
D14*
%TO.C,D4*%
X183440000Y-84300000D03*
D15*
X181281000Y-84300000D03*
X179122000Y-84300000D03*
X176963000Y-84300000D03*
%TD*%
M02*
